<svg width="16" height="16" viewBox="0 0 16 16" fill="none" xmlns="http://www.w3.org/2000/svg">
<path d="M11.9473 1.00326C11.9471 1.26839 11.8416 1.52257 11.654 1.70993L6.5393 6.8246C6.38449 6.97937 6.26168 7.16312 6.1779 7.36535C6.09411 7.56759 6.05099 7.78436 6.05099 8.00326C6.05099 8.22217 6.09411 8.43893 6.1779 8.64117C6.26168 8.84341 6.38449 9.02716 6.5393 9.18193L11.6473 14.2899C11.8295 14.4785 11.9303 14.7311 11.928 14.9933C11.9257 15.2555 11.8205 15.5063 11.6351 15.6917C11.4497 15.8772 11.1989 15.9823 10.9367 15.9846C10.6745 15.9869 10.4219 15.8861 10.2333 15.7039L5.1253 10.5999C4.43847 9.91175 4.05273 8.9792 4.05273 8.00693C4.05273 7.03466 4.43847 6.1021 5.1253 5.41393L10.24 0.295928C10.3798 0.155984 10.558 0.0606703 10.7521 0.0220476C10.9461 -0.0165752 11.1473 0.00322894 11.33 0.0789539C11.5128 0.154679 11.669 0.282921 11.7789 0.447454C11.8888 0.611986 11.9474 0.805414 11.9473 1.00326Z" fill="#B8B8B8"/>
</svg>
