<svg width="8" height="9" viewBox="0 0 8 9" fill="none" xmlns="http://www.w3.org/2000/svg">
<g clip-path="url(#clip0_4499_2703)">
<path d="M2.02637 8.00005C2.02648 7.86748 2.07924 7.74039 2.17303 7.64671L4.73037 5.08938C4.80777 5.012 4.86918 4.92012 4.91107 4.819C4.95296 4.71788 4.97452 4.6095 4.97452 4.50005C4.97452 4.39059 4.95296 4.28221 4.91107 4.18109C4.86918 4.07997 4.80777 3.9881 4.73037 3.91071L2.17637 1.35505C2.08529 1.26075 2.03489 1.13444 2.03603 1.00335C2.03717 0.872247 2.08975 0.746841 2.18246 0.654137C2.27516 0.561433 2.40057 0.508849 2.53167 0.507709C2.66277 0.50657 2.78907 0.556967 2.88337 0.648046L5.43737 3.20171C5.78078 3.5458 5.97365 4.01208 5.97365 4.49821C5.97365 4.98435 5.78078 5.45063 5.43737 5.79471L2.88003 8.35205C2.81021 8.42192 2.72125 8.46954 2.62438 8.48891C2.52752 8.50827 2.42709 8.49851 2.33576 8.46086C2.24444 8.4232 2.16632 8.35934 2.11125 8.27732C2.05619 8.19531 2.02665 8.09883 2.02637 8.00005Z" fill="#838283"/>
</g>
<defs>
<clipPath id="clip0_4499_2703">
<rect width="8" height="8" fill="white" transform="translate(0 0.5)"/>
</clipPath>
</defs>
</svg>
