<svg width="16" height="16" viewBox="0 0 16 16" fill="none" xmlns="http://www.w3.org/2000/svg">
<path d="M11.9473 1.00338C11.9471 1.26851 11.8416 1.52269 11.654 1.71005L6.5393 6.82472C6.38449 6.97949 6.26168 7.16324 6.1779 7.36548C6.09411 7.56771 6.05099 7.78448 6.05099 8.00338C6.05099 8.22229 6.09411 8.43905 6.1779 8.64129C6.26168 8.84353 6.38449 9.02728 6.5393 9.18205L11.6473 14.29C11.8295 14.4787 11.9303 14.7313 11.928 14.9935C11.9257 15.2556 11.8205 15.5065 11.6351 15.6919C11.4497 15.8773 11.1989 15.9824 10.9367 15.9847C10.6745 15.987 10.4219 15.8862 10.2333 15.7041L5.1253 10.6C4.43847 9.91188 4.05273 8.97932 4.05273 8.00705C4.05273 7.03478 4.43847 6.10223 5.1253 5.41405L10.24 0.29605C10.3798 0.156106 10.558 0.0607924 10.7521 0.0221697C10.9461 -0.0164531 11.1473 0.00335101 11.33 0.079076C11.5128 0.154801 11.669 0.283043 11.7789 0.447576C11.8888 0.612108 11.9474 0.805536 11.9473 1.00338Z" fill="#B8B8B8"/>
</svg>
