<svg width="33" height="36" viewBox="0 0 33 36" fill="none" xmlns="http://www.w3.org/2000/svg">
<rect width="36" height="36" rx="18" fill="white"/>
<g clip-path="url(#clip0_4114_2058)">
<path d="M22.7674 10.5L21.5899 8.97333C21.3554 8.67151 21.0552 8.42701 20.7121 8.25838C20.3691 8.08974 19.9922 8.00139 19.6099 8H16.3899C16.0077 8.00139 15.6307 8.08974 15.2877 8.25838C14.9447 8.42701 14.6445 8.67151 14.4099 8.97333L13.2324 10.5H22.7674Z" fill="#374957"/>
<path d="M18.0003 23C19.8413 23 21.3336 21.5076 21.3336 19.6667C21.3336 17.8258 19.8413 16.3334 18.0003 16.3334C16.1594 16.3334 14.667 17.8258 14.667 19.6667C14.667 21.5076 16.1594 23 18.0003 23Z" fill="#374957"/>
<path d="M23.8333 12.1666H12.1667C11.062 12.1679 10.003 12.6074 9.22185 13.3885C8.44073 14.1696 8.00132 15.2286 8 16.3333L8 23.8333C8.00132 24.9379 8.44073 25.997 9.22185 26.7781C10.003 27.5592 11.062 27.9986 12.1667 27.9999H23.8333C24.938 27.9986 25.997 27.5592 26.7782 26.7781C27.5593 25.997 27.9987 24.9379 28 23.8333V16.3333C27.9987 15.2286 27.5593 14.1696 26.7782 13.3885C25.997 12.6074 24.938 12.1679 23.8333 12.1666ZM18 24.6666C17.0111 24.6666 16.0444 24.3734 15.2221 23.824C14.3999 23.2745 13.759 22.4937 13.3806 21.58C13.0022 20.6664 12.9031 19.6611 13.0961 18.6912C13.289 17.7213 13.7652 16.8303 14.4645 16.1311C15.1637 15.4318 16.0546 14.9556 17.0245 14.7627C17.9945 14.5698 18.9998 14.6688 19.9134 15.0472C20.827 15.4257 21.6079 16.0665 22.1573 16.8888C22.7068 17.711 23 18.6777 23 19.6666C22.9987 20.9923 22.4715 22.2633 21.5341 23.2007C20.5967 24.1381 19.3257 24.6653 18 24.6666Z" fill="#374957"/>
</g>
<defs>
<clipPath id="clip0_4114_2058">
<rect width="20" height="20" fill="white" transform="translate(8 8)"/>
</clipPath>
</defs>
</svg>
