<svg width="12" height="12" viewBox="0 0 12 12" fill="none" xmlns="http://www.w3.org/2000/svg">
<g clip-path="url(#clip0_4547_2868)">
<path d="M6.70689 6.0002L11.8534 0.853704C11.9445 0.759402 11.9949 0.633101 11.9937 0.502003C11.9926 0.370905 11.94 0.245498 11.8473 0.152794C11.7546 0.0600902 11.6292 0.00750577 11.4981 0.00636656C11.367 0.00522735 11.2407 0.0556246 11.1464 0.146704L5.99989 5.2932L0.853393 0.146704C0.759092 0.0556246 0.632791 0.00522735 0.501693 0.00636656C0.370594 0.00750577 0.245188 0.0600902 0.152484 0.152794C0.0597799 0.245498 0.00719542 0.370905 0.00605621 0.502003C0.004917 0.633101 0.0553142 0.759402 0.146393 0.853704L5.29289 6.0002L0.146393 11.1467C0.0526577 11.2405 0 11.3676 0 11.5002C0 11.6328 0.0526577 11.7599 0.146393 11.8537V11.8537C0.240157 11.9474 0.367311 12.0001 0.499893 12.0001C0.632475 12.0001 0.759629 11.9474 0.853393 11.8537L5.99989 6.7072L11.1464 11.8537C11.2402 11.9474 11.3673 12.0001 11.4999 12.0001C11.6325 12.0001 11.7596 11.9474 11.8534 11.8537C11.9471 11.7599 11.9998 11.6328 11.9998 11.5002C11.9998 11.3676 11.9471 11.2405 11.8534 11.1467L6.70689 6.0002Z" fill="#B8B8B8"/>
</g>
<defs>
<clipPath id="clip0_4547_2868">
<rect width="12" height="12" fill="white"/>
</clipPath>
</defs>
</svg>
