<svg width="19" height="19" viewBox="0 0 19 19" fill="none" xmlns="http://www.w3.org/2000/svg">
<g clip-path="url(#clip0_4009_3169)">
<path d="M17.4715 3.67473C17.2552 3.41507 16.9843 3.20623 16.6781 3.06305C16.3719 2.91987 16.038 2.84585 15.7 2.84627H3.26308L3.23077 2.57627C3.16465 2.01505 2.89491 1.4976 2.47268 1.12202C2.05046 0.746438 1.5051 0.538837 0.94 0.538574L0.769231 0.538574C0.565218 0.538574 0.369561 0.619618 0.225302 0.763877C0.0810437 0.908135 0 1.10379 0 1.3078C0 1.51182 0.0810437 1.70747 0.225302 1.85173C0.369561 1.99599 0.565218 2.07704 0.769231 2.07704H0.94C1.12841 2.07706 1.31026 2.14623 1.45106 2.27143C1.59185 2.39663 1.6818 2.56915 1.70385 2.75627L2.76231 11.7563C2.87219 12.6923 3.32191 13.5553 4.02608 14.1817C4.73026 14.808 5.63989 15.154 6.58231 15.154H14.6154C14.8194 15.154 15.0151 15.0729 15.1593 14.9287C15.3036 14.7844 15.3846 14.5887 15.3846 14.3847C15.3846 14.1807 15.3036 13.9851 15.1593 13.8408C15.0151 13.6965 14.8194 13.6155 14.6154 13.6155H6.58231C6.1062 13.6142 5.64215 13.4656 5.2538 13.1902C4.86544 12.9147 4.57178 12.5259 4.41308 12.077H13.5823C14.4841 12.0771 15.3572 11.7603 16.0491 11.182C16.741 10.6037 17.2077 9.80065 17.3677 8.91319L17.9715 5.56396C18.0318 5.23166 18.0183 4.89016 17.9319 4.56368C17.8455 4.2372 17.6883 3.93371 17.4715 3.67473Z" fill="#222022"/>
<path d="M5.38465 19.0007C6.23432 19.0007 6.92311 18.312 6.92311 17.4623C6.92311 16.6126 6.23432 15.9238 5.38465 15.9238C4.53498 15.9238 3.84619 16.6126 3.84619 17.4623C3.84619 18.312 4.53498 19.0007 5.38465 19.0007Z" fill="#222022"/>
<path d="M13.077 19.0007C13.9267 19.0007 14.6155 18.312 14.6155 17.4623C14.6155 16.6126 13.9267 15.9238 13.077 15.9238C12.2274 15.9238 11.5386 16.6126 11.5386 17.4623C11.5386 18.312 12.2274 19.0007 13.077 19.0007Z" fill="#222022"/>
</g>
<defs>
<clipPath id="clip0_4009_3169">
<rect width="18.4615" height="18.4615" fill="white" transform="translate(0 0.538574)"/>
</clipPath>
</defs>
</svg>
