<svg width="24" height="24" viewBox="0 0 24 24" fill="none" xmlns="http://www.w3.org/2000/svg">
<g clip-path="url(#clip0_2014_447)">
<path d="M8.16387 7.99958C7.58445 7.99134 7.02605 7.78128 6.58487 7.40558C5.66365 6.56086 5.10559 5.39204 5.02787 4.14458C4.78488 1.65058 6.14487 0.180577 7.61387 0.016577C7.96783 -0.0228967 8.32612 0.00935756 8.66734 0.111414C9.00855 0.213471 9.32571 0.383237 9.59987 0.610577C10.0091 0.97934 10.3414 1.42542 10.5776 1.92313C10.8137 2.42083 10.9491 2.96034 10.9759 3.51058C11.1999 5.83358 9.96187 7.99958 8.16387 7.99958ZM2.85288 13.9996C2.32076 13.9874 1.81273 13.7753 1.42988 13.4056C0.583373 12.5242 0.0858536 11.3653 0.029881 10.1446C-0.190119 7.65058 1.03588 6.18058 2.36088 6.01658C2.68386 5.97968 3.01101 6.01371 3.31949 6.11631C3.62796 6.2189 3.91033 6.38758 4.14688 6.61058C4.90765 7.3887 5.35026 8.42299 5.38788 9.51058C5.58887 11.8336 4.35888 13.9996 2.85288 13.9996ZM15.8359 7.99958C14.0259 7.99958 12.8019 5.83358 13.0289 3.50758C13.0557 2.95734 13.191 2.41783 13.4272 1.92013C13.6633 1.42242 13.9956 0.97634 14.4049 0.607577C14.6787 0.381551 14.9952 0.212783 15.3355 0.111267C15.6757 0.00975084 16.0329 -0.0224481 16.3859 0.016577C17.8549 0.180577 19.2149 1.65058 18.9719 4.14458C18.8941 5.39231 18.3361 6.56143 17.4149 7.40658C16.9734 7.78162 16.4151 7.99129 15.8359 7.99958ZM21.0529 13.9996C19.1669 13.9996 18.2259 11.8336 18.4379 9.50758C18.4799 8.41304 18.9381 7.3758 19.7189 6.60758C19.9666 6.38292 20.2594 6.21372 20.5777 6.11129C20.8961 6.00885 21.2326 5.97554 21.5649 6.01358C22.9329 6.17758 24.1999 7.64758 23.9739 10.1416C23.9103 11.371 23.3934 12.5332 22.5229 13.4036C22.1225 13.7757 21.5993 13.9878 21.0529 13.9996ZM15.9999 23.9996C15.1452 24.0164 14.3012 23.8077 13.5529 23.3946C13.0741 23.1423 12.541 23.0105 11.9999 23.0105C11.4587 23.0105 10.9257 23.1423 10.4469 23.3946C7.43387 25.0816 3.92188 23.2266 3.99988 18.9996C3.99988 14.3636 8.50687 9.99958 11.9999 9.99958C15.4929 9.99958 19.9999 14.3636 19.9999 18.9996C19.9999 21.9436 18.3549 23.9996 15.9999 23.9996Z" fill="current"/>
</g>
<defs>
<clipPath id="clip0_2014_447">
<rect width="24" height="24" fill="white"/>
</clipPath>
</defs>
</svg>
