<svg width="48" height="49" viewBox="0 0 48 49" fill="none" xmlns="http://www.w3.org/2000/svg">
<circle cx="24" cy="24.5" r="23" fill="#EEF6FF" stroke="#C8E2FF" stroke-width="2"/>
<path fill-rule="evenodd" clip-rule="evenodd" d="M19.2402 18.4109C19.2402 20.35 17.6682 21.922 15.7292 21.922C13.7901 21.922 12.2181 20.35 12.2181 18.4109C12.2181 16.4719 13.7901 14.8999 15.7292 14.8999C17.6682 14.8999 19.2402 16.4719 19.2402 18.4109ZM35.7421 18.4109C35.7421 20.35 34.1702 21.922 32.2311 21.922C30.292 21.922 28.72 20.35 28.72 18.4109C28.72 16.4719 30.292 14.8999 32.2311 14.8999C34.1702 14.8999 35.7421 16.4719 35.7421 18.4109ZM23.1023 21.2197C21.9388 21.2197 20.9957 22.1629 20.9957 23.3263C20.9957 24.349 21.7244 25.2015 22.6908 25.3928V27.5262C21.981 27.9543 21.0927 28.4461 20.1697 28.8774C18.774 29.5296 17.4712 29.9598 16.607 29.9598C15.5967 29.9598 14.8757 29.802 14.4032 29.6304C13.9844 29.4783 13.8007 29.3313 13.7636 29.3016C13.7561 29.2956 13.7546 29.2944 13.7585 29.299C13.3728 28.8362 12.6849 28.7737 12.222 29.1594C11.7592 29.5451 11.6966 30.233 12.0823 30.6958C12.3977 31.0743 12.9539 31.4253 13.6584 31.6811C14.3943 31.9484 15.3703 32.1416 16.607 32.1416C17.665 32.1416 18.8978 31.7769 20.0554 31.308C20.6974 32.4519 22.0056 34.2107 23.9801 34.2107C25.9546 34.2107 27.2629 32.4519 27.9049 31.3081C29.0625 31.7769 30.2953 32.1416 31.3532 32.1416C32.5899 32.1416 33.566 31.9484 34.3019 31.6811C35.0063 31.4253 35.5625 31.0743 35.8779 30.6958C36.2636 30.233 36.201 29.5451 35.7382 29.1594C35.2753 28.7737 34.5875 28.8362 34.2018 29.299C34.2056 29.2944 34.2041 29.2956 34.1966 29.3016C34.1595 29.3313 33.9758 29.4783 33.557 29.6304C33.0845 29.802 32.3635 29.9598 31.3532 29.9598C30.489 29.9598 29.1862 29.5296 27.7905 28.8774C26.8847 28.4541 26.0122 27.9725 25.309 27.5501V25.3845C26.2557 25.178 26.9644 24.3349 26.9644 23.3263C26.9644 22.1629 26.0213 21.2197 24.8578 21.2197H23.1023Z" fill="#C8E2FF"/>
</svg>
