<svg width="64" height="65" viewBox="0 0 64 65" fill="none" xmlns="http://www.w3.org/2000/svg">
<path d="M1.31246 38.3795C2.02272 38.4001 2.93369 38.5756 3.72115 39.1587C4.31817 39.5818 4.71447 40.1907 5.09019 40.7531C5.09019 40.7531 4.98725 40.5261 4.9049 40.17C4.81226 39.814 4.68359 39.3393 4.56007 38.8645C4.43655 38.3898 4.30788 37.9151 4.21524 37.559C4.15862 37.1927 4.12259 36.9502 4.12259 36.9502C3.60277 37.0276 2.26976 37.1514 1.25585 36.1452C0.941898 35.8253 0.669119 35.4228 0.483835 34.9945C0.324287 34.5662 0.21106 34.1121 0.139004 33.7045C-0.00510406 32.884 4.3869e-05 32.2442 4.3869e-05 32.2442C4.3869e-05 32.2442 0.463249 32.2132 1.07057 32.3629C1.67788 32.5074 2.42417 32.8273 2.99546 33.4723C3.40205 33.9212 3.62851 34.4785 3.83438 35.0048C3.83438 35.0048 3.81379 34.8965 3.8035 34.7313C3.7932 34.5662 3.78806 34.3443 3.77776 34.1276C3.76232 33.6838 3.74174 33.2452 3.74174 33.2452C3.53586 32.9924 3.21677 32.5744 2.97487 32.0275C2.76385 31.4857 2.61974 30.8097 2.66607 30.0925C2.68665 29.1224 3.26309 28.3174 3.67998 27.7756C4.1226 27.2338 4.52404 26.9448 4.52404 26.9448C4.52404 26.9448 4.80197 27.3886 5.04387 28.0233C5.3115 28.6683 5.44017 29.4732 5.42987 30.335C5.39384 30.9697 5.16224 31.5527 4.88946 32.0533C4.65786 32.5538 4.39538 32.9718 4.20494 33.2298C4.20494 33.2298 4.22553 34.0709 4.29244 34.9119C4.41596 35.7479 4.53948 36.5838 4.53948 36.5838C4.60125 36.0317 4.7505 35.4486 5.06445 34.9842C5.51222 34.3134 6.28423 33.9935 6.86582 33.8387C7.46284 33.6838 7.92605 33.6838 7.92605 33.6838C7.92605 33.6838 7.93635 33.8025 7.93635 33.9935C7.93635 34.1895 7.91576 34.4579 7.92091 34.7623C7.90547 35.3763 7.77165 36.1504 7.31874 36.8212C6.69598 37.8635 5.45561 38.3382 4.94093 38.4775C4.94093 38.4775 5.18798 39.4063 5.43502 40.3455C5.785 41.2433 6.14013 42.1412 6.14013 42.1412C6.05263 41.4858 6.05778 40.7583 6.29453 40.1339C6.69598 39.267 7.42682 38.7459 8.04957 38.4363C8.67233 38.1267 9.19216 38.0183 9.19216 38.0183C9.19216 38.0183 9.33626 38.5137 9.41347 39.1948C9.54728 39.8553 9.58845 40.7222 9.25906 41.5684C8.78556 42.8997 7.5349 43.7511 7.01507 44.0246C7.01507 44.0246 7.4577 44.845 7.90032 45.6655C8.43558 46.4292 8.9657 47.1929 8.9657 47.1929C8.69292 46.4653 8.43043 45.6706 8.61572 44.8502C8.83703 43.8079 9.50611 43.0803 10.1134 42.6004C10.7207 42.1205 11.2612 41.878 11.2612 41.878C11.2612 41.878 11.5597 42.3527 11.7758 43.07C12.0332 43.7666 12.3265 44.6438 12.1618 45.6448C11.9817 47.2135 10.8237 48.4984 10.3399 48.9215C10.3399 48.9215 10.9318 49.5974 11.5494 50.2528C12.2236 50.8462 12.8978 51.4447 12.8978 51.4447C12.3934 50.712 11.8582 49.907 11.8788 48.9163C11.8633 47.7501 12.4089 46.811 12.9493 46.1557C13.4948 45.5004 14.0198 45.103 14.0198 45.103C14.0198 45.103 14.447 45.521 14.8484 46.2125C15.0337 46.584 15.3014 46.9245 15.4815 47.3631C15.6719 47.7966 15.8109 48.2919 15.8521 48.8441C16.0682 50.552 15.1367 52.3013 14.7507 52.8534C14.7507 52.8534 14.9617 52.9979 15.2756 53.2146C15.43 53.323 15.6153 53.452 15.816 53.5913C16.027 53.7048 16.2535 53.8235 16.48 53.9474C17.3858 54.4221 18.2916 54.8968 18.2916 54.8968L18.1012 55.3199C18.1012 55.3199 16.8042 54.6491 15.5227 53.9474C14.9205 53.5346 14.3183 53.1166 13.8706 52.807C13.6441 52.6522 13.4537 52.5232 13.325 52.4303C13.1963 52.3374 13.1294 52.2703 13.1294 52.2703C12.7022 52.7812 11.4053 54.2931 9.25391 54.0712C7.90546 53.9732 6.68054 53.0598 5.74897 52.2497C5.51737 52.0433 5.30635 51.8472 5.11592 51.6615C4.94608 51.4602 4.80197 51.2745 4.68874 51.1197C4.45199 50.8101 4.32332 50.6088 4.32332 50.6088C4.32332 50.6088 4.82256 50.1857 5.62545 49.8606C6.0269 49.6955 6.5004 49.551 7.02022 49.4891C7.52975 49.4323 8.09589 49.4375 8.71865 49.5355C9.72227 49.711 10.5818 50.227 11.3486 50.6965C11.3486 50.6965 11.1634 50.5624 10.9421 50.294C10.7156 50.036 10.4068 49.6955 10.1031 49.3549C9.79432 49.0144 9.49067 48.6738 9.26421 48.4158C9.05319 48.1475 8.92452 47.9514 8.92452 47.9514C8.42014 48.3126 6.95846 49.3188 5.15195 48.6944C3.99393 48.3332 3.12413 47.3012 2.48078 46.4137C2.16683 45.9648 1.89919 45.5571 1.75509 45.2475C1.61612 44.9328 1.54407 44.7315 1.54407 44.7315C1.54407 44.7315 2.06904 44.4529 2.83591 44.3187C3.22191 44.2516 3.66453 44.2155 4.12774 44.2619C4.61154 44.2981 5.13136 44.4013 5.64089 44.6232C6.44379 44.9637 7.08198 45.552 7.62754 46.1092C7.62754 46.1092 7.59151 46.0628 7.52975 45.9802C7.47828 45.8874 7.40623 45.7584 7.32388 45.5984C7.15404 45.2836 6.92758 44.8657 6.70627 44.4477C6.48496 44.0297 6.24821 43.6169 6.0938 43.297C5.96514 42.9668 5.87249 42.7449 5.87249 42.7449C5.33723 42.9616 3.87555 43.4828 2.46534 42.6004C2.03301 42.3218 1.61098 41.9399 1.31761 41.4962C1.02939 41.0524 0.797789 40.5725 0.612505 40.1288C0.247086 39.2412 0.0926857 38.5188 0.0926857 38.5188C0.0926857 38.5188 0.602215 38.3743 1.30732 38.4001L1.31246 38.3795Z" fill="#2B91FF"/>
<path d="M62.6876 38.3795C61.9773 38.4001 61.0663 38.5756 60.2789 39.1587C59.6818 39.5818 59.2855 40.1907 58.9098 40.7531C58.9098 40.7531 59.0128 40.5261 59.0951 40.17C59.1878 39.814 59.3164 39.3393 59.4399 38.8645C59.5635 38.3898 59.6921 37.9151 59.7848 37.559C59.8414 37.1927 59.8774 36.9502 59.8774 36.9502C60.3972 37.0276 61.7303 37.1514 62.7442 36.1452C63.0581 35.8253 63.3309 35.4228 63.5162 34.9945C63.6757 34.5662 63.789 34.1121 63.861 33.7045C64.0051 32.884 64 32.2442 64 32.2442C64 32.2442 63.5368 32.2132 62.9295 32.3629C62.3221 32.5074 61.5759 32.8273 61.0046 33.4723C60.598 33.9212 60.3715 34.4785 60.1656 35.0048C60.1656 35.0048 60.1862 34.8965 60.1965 34.7313C60.2068 34.5662 60.212 34.3443 60.2223 34.1276C60.2377 33.6838 60.2583 33.2452 60.2583 33.2452C60.4642 32.9924 60.7833 32.5744 61.0252 32.0275C61.2362 31.4857 61.3803 30.8097 61.334 30.0925C61.3134 29.1224 60.7369 28.3174 60.32 27.7756C59.8774 27.2338 59.476 26.9448 59.476 26.9448C59.476 26.9448 59.1981 27.3886 58.9562 28.0233C58.6885 28.6683 58.5599 29.4732 58.5701 30.335C58.6062 30.9697 58.8378 31.5527 59.1106 32.0533C59.3422 32.5538 59.6046 32.9718 59.7951 33.2298C59.7951 33.2298 59.7745 34.0709 59.7076 34.9119C59.5841 35.7479 59.4605 36.5838 59.4605 36.5838C59.3988 36.0317 59.2495 35.4486 58.9356 34.9842C58.4878 34.3134 57.7158 33.9935 57.1342 33.8387C56.5372 33.6838 56.074 33.6838 56.074 33.6838C56.074 33.6838 56.0637 33.8025 56.0637 33.9935C56.0637 34.1895 56.0843 34.4579 56.0791 34.7623C56.0946 35.3763 56.2284 36.1504 56.6813 36.8212C57.304 37.8635 58.5444 38.3382 59.0591 38.4775C59.0591 38.4775 58.812 39.4063 58.565 40.3455C58.215 41.2433 57.8599 42.1412 57.8599 42.1412C57.9474 41.4858 57.9422 40.7583 57.7055 40.1339C57.304 39.267 56.5732 38.7459 55.9504 38.4363C55.3277 38.1267 54.8079 38.0183 54.8079 38.0183C54.8079 38.0183 54.6638 38.5137 54.5866 39.1948C54.4527 39.8553 54.4116 40.7222 54.741 41.5684C55.2145 42.8997 56.4651 43.7511 56.9849 44.0246C56.9849 44.0246 56.5423 44.845 56.0997 45.6655C55.5644 46.4292 55.0343 47.1929 55.0343 47.1929C55.3071 46.4653 55.5696 45.6706 55.3843 44.8502C55.163 43.8079 54.4939 43.0803 53.8866 42.6004C53.2793 42.1205 52.7389 41.878 52.7389 41.878C52.7389 41.878 52.4404 42.3527 52.2242 43.07C51.9669 43.7666 51.6735 44.6438 51.8382 45.6448C52.0183 47.2135 53.1763 48.4984 53.6601 48.9215C53.6601 48.9215 53.0683 49.5974 52.4506 50.2528C51.7764 50.8462 51.1022 51.4447 51.1022 51.4447C51.6066 50.712 52.1418 49.907 52.1213 48.9163C52.1367 47.7501 51.5911 46.811 51.0507 46.1557C50.5052 45.5004 49.9802 45.103 49.9802 45.103C49.9802 45.103 49.553 45.521 49.1516 46.2125C48.9663 46.584 48.6987 46.9245 48.5185 47.3631C48.3281 47.7966 48.1891 48.2919 48.148 48.8441C47.9318 50.552 48.8634 52.3013 49.2494 52.8534C49.2494 52.8534 49.0383 52.9979 48.7244 53.2146C48.57 53.323 48.3847 53.452 48.184 53.5913C47.973 53.7048 47.7465 53.8235 47.5201 53.9474C46.6142 54.4221 45.7084 54.8968 45.7084 54.8968L45.8988 55.3199C45.8988 55.3199 47.1958 54.6491 48.4774 53.9474C49.0795 53.5346 49.6765 53.1166 50.1295 52.807C50.3559 52.6522 50.5463 52.5232 50.675 52.4303C50.8037 52.3374 50.8706 52.2703 50.8706 52.2703C51.2978 52.7812 52.5948 54.2931 54.7461 54.0712C56.0946 53.9732 57.3195 53.0598 58.251 52.2497C58.4827 52.0433 58.6937 51.8472 58.8841 51.6615C59.0539 51.4602 59.1981 51.2745 59.3113 51.1197C59.548 50.8101 59.6767 50.6088 59.6767 50.6088C59.6767 50.6088 59.1775 50.1857 58.3746 49.8606C57.9731 49.6955 57.4996 49.551 56.9798 49.4891C56.4703 49.4323 55.9041 49.4375 55.2814 49.5355C54.2777 49.711 53.4182 50.227 52.6514 50.6965C52.6514 50.6965 52.8367 50.5624 53.058 50.294C53.2844 50.036 53.5932 49.6955 53.8969 49.3549C54.2057 49.0144 54.5094 48.6738 54.7358 48.4158C54.9468 48.1475 55.0755 47.9514 55.0755 47.9514C55.5799 48.3126 57.0416 49.3188 58.8481 48.6944C60.0061 48.3332 60.8759 47.3012 61.5192 46.4137C61.8332 45.9648 62.1008 45.5571 62.2449 45.2475C62.3839 44.9328 62.4559 44.7315 62.4559 44.7315C62.4559 44.7315 61.931 44.4529 61.1641 44.3187C60.7781 44.2516 60.3355 44.2155 59.8723 44.2619C59.3885 44.2981 58.8687 44.4013 58.3591 44.6232C57.5562 44.9637 56.918 45.552 56.3725 46.1092C56.3725 46.1092 56.4085 46.0628 56.4703 45.9802C56.5217 45.8874 56.5938 45.7584 56.6761 45.5984C56.846 45.2836 57.0724 44.8657 57.2937 44.4477C57.5151 44.0297 57.7518 43.6169 57.9062 43.297C58.0349 42.9668 58.1275 42.7449 58.1275 42.7449C58.6628 42.9616 60.1245 43.4828 61.5347 42.6004C61.967 42.3218 62.389 41.9399 62.6824 41.4962C62.9706 41.0524 63.2022 40.5725 63.3875 40.1288C63.7529 39.2412 63.9073 38.5188 63.9073 38.5188C63.9073 38.5188 63.3978 38.3743 62.6927 38.4001L62.6876 38.3795Z" fill="#2B91FF"/>
<path d="M31.9975 53.4521L30.9013 55.6813L28.4411 56.0425L30.2219 57.7814L29.7999 60.2376L31.9975 59.0766L34.2003 60.2376L33.7783 57.7814L35.5591 56.0425L33.0989 55.6813L31.9975 53.4521Z" fill="#2B91FF"/>
<path d="M39.8462 54.123L38.9661 55.9136L36.9897 56.2025L38.4205 57.5958L38.0808 59.5617L39.8462 58.6329L41.6115 59.5617L41.2718 57.5958L42.7026 56.2025L40.7263 55.9136L39.8462 54.123Z" fill="#2B91FF"/>
<path d="M24.1536 54.123L23.2683 55.9136L21.2971 56.2025L22.7279 57.5958L22.3882 59.5617L24.1536 58.6329L25.9189 59.5617L25.5792 57.5958L27.0049 56.2025L25.0337 55.9136L24.1536 54.123Z" fill="#2B91FF"/>
<ellipse cx="22.8571" cy="22.8571" rx="22.8571" ry="22.8571" transform="matrix(-1 0 0 1 54.8572 5.07129)" fill="#2B91FF"/>
<path fill-rule="evenodd" clip-rule="evenodd" d="M36.5332 22.1295C36.5332 23.9763 38.0303 25.4733 39.8771 25.4733C41.7238 25.4733 43.2209 23.9763 43.2209 22.1295C43.2209 20.2827 41.7238 18.7856 39.8771 18.7856C38.0303 18.7856 36.5332 20.2827 36.5332 22.1295ZM20.8171 22.1295C20.8171 23.9763 22.3142 25.4733 24.161 25.4733C26.0077 25.4733 27.5048 23.9763 27.5048 22.1295C27.5048 20.2827 26.0077 18.7856 24.161 18.7856C22.3142 18.7856 20.8171 20.2827 20.8171 22.1295ZM32.855 24.8045C33.9631 24.8045 34.8614 25.7028 34.8614 26.8108C34.8614 27.7848 34.1674 28.5966 33.2469 28.7789V30.8107C33.923 31.2184 34.769 31.6868 35.648 32.0976C36.9772 32.7187 38.218 33.1284 39.041 33.1284C40.0033 33.1284 40.6899 32.9781 41.1399 32.8147C41.5387 32.6698 41.7137 32.5298 41.749 32.5016C41.7562 32.4958 41.7576 32.4947 41.7539 32.4991C42.1213 32.0583 42.7764 31.9987 43.2172 32.3661C43.658 32.7334 43.7176 33.3886 43.3502 33.8294C43.0499 34.1898 42.5202 34.5241 41.8493 34.7678C41.1484 35.0223 40.2189 35.2064 39.041 35.2064C38.0334 35.2064 36.8594 34.859 35.7569 34.4124C35.1454 35.5018 33.8995 37.1769 32.019 37.1769C30.1385 37.1769 28.8926 35.5018 28.2811 34.4125C27.1787 34.859 26.0046 35.2064 24.997 35.2064C23.8192 35.2064 22.8896 35.0223 22.1888 34.7678C21.5179 34.5241 20.9882 34.1898 20.6878 33.8294C20.3205 33.3886 20.38 32.7334 20.8208 32.3661C21.2617 31.9987 21.9168 32.0583 22.2841 32.4991C22.2805 32.4947 22.2819 32.4958 22.289 32.5016C22.3244 32.5298 22.4993 32.6698 22.8981 32.8147C23.3481 32.9781 24.0348 33.1284 24.997 33.1284C25.82 33.1284 27.0608 32.7187 28.3901 32.0976C29.2528 31.6944 30.0837 31.2357 30.7534 30.8334V28.771C29.8518 28.5743 29.1768 27.7714 29.1768 26.8108C29.1768 25.7028 30.0751 24.8045 31.1831 24.8045H32.855Z" fill="white"/>
</svg>
