<svg width="16" height="17" viewBox="0 0 16 17" fill="none" xmlns="http://www.w3.org/2000/svg">
<path d="M11.3333 7.83333H8.66667V5.16667C8.66667 4.98986 8.59643 4.82029 8.4714 4.69526C8.34638 4.57024 8.17681 4.5 8 4.5C7.82319 4.5 7.65362 4.57024 7.5286 4.69526C7.40357 4.82029 7.33333 4.98986 7.33333 5.16667V7.83333H4.66667C4.48986 7.83333 4.32029 7.90357 4.19526 8.0286C4.07024 8.15362 4 8.32319 4 8.5C4 8.67681 4.07024 8.84638 4.19526 8.9714C4.32029 9.09643 4.48986 9.16667 4.66667 9.16667H7.33333V11.8333C7.33333 12.0101 7.40357 12.1797 7.5286 12.3047C7.65362 12.4298 7.82319 12.5 8 12.5C8.17681 12.5 8.34638 12.4298 8.4714 12.3047C8.59643 12.1797 8.66667 12.0101 8.66667 11.8333V9.16667H11.3333C11.5101 9.16667 11.6797 9.09643 11.8047 8.9714C11.9298 8.84638 12 8.67681 12 8.5C12 8.32319 11.9298 8.15362 11.8047 8.0286C11.6797 7.90357 11.5101 7.83333 11.3333 7.83333Z" fill="#838283"/>
</svg>
