<svg width="200" height="257" viewBox="0 0 200 257" fill="none" xmlns="http://www.w3.org/2000/svg">
<path d="M4.10173 118.373C6.32127 118.438 9.16807 118.986 11.6289 120.808C13.4946 122.131 14.733 124.033 15.9071 125.791C15.9071 125.791 15.5854 125.082 15.3281 123.969C15.0386 122.856 14.6365 121.373 14.2505 119.889C13.8645 118.406 13.4624 116.922 13.1729 115.81C12.996 114.665 12.8834 113.907 12.8834 113.907C11.2589 114.149 7.09328 114.536 3.92481 111.391C2.94371 110.392 2.09127 109.134 1.51226 107.795C1.01367 106.457 0.659832 105.038 0.434662 103.764C-0.0156784 101.2 0.000411987 99.2007 0.000411987 99.2007C0.000411987 99.2007 1.44793 99.1039 3.34579 99.5716C5.24366 100.023 7.5758 101.023 9.36108 103.038C10.6317 104.441 11.3394 106.183 11.9827 107.828C11.9827 107.828 11.9184 107.489 11.8862 106.973C11.854 106.457 11.838 105.764 11.8058 105.086C11.7575 103.7 11.6932 102.329 11.6932 102.329C11.0499 101.539 10.0527 100.233 9.29675 98.5234C8.63732 96.8303 8.18698 94.7179 8.33173 92.4765C8.39606 89.445 10.1974 86.9294 11.5002 85.2363C12.8834 83.5431 14.1379 82.6401 14.1379 82.6401C14.1379 82.6401 15.0064 84.0269 15.7624 86.0103C16.5987 88.0259 17.0008 90.5415 16.9686 93.2344C16.856 95.2178 16.1323 97.0399 15.2799 98.604C14.5561 100.168 13.7358 101.474 13.1407 102.281C13.1407 102.281 13.2051 104.909 13.4142 107.537C13.8002 110.15 14.1862 112.762 14.1862 112.762C14.3792 111.037 14.8456 109.214 15.8267 107.763C17.226 105.667 19.6385 104.667 21.456 104.183C23.3217 103.7 24.7692 103.7 24.7692 103.7C24.7692 103.7 24.8014 104.07 24.8014 104.667C24.8014 105.28 24.737 106.118 24.7531 107.07C24.7049 108.989 24.2867 111.407 22.8713 113.504C20.9252 116.761 17.0491 118.244 15.4407 118.68C15.4407 118.68 16.2127 121.582 16.9847 124.517C18.0784 127.323 19.1882 130.129 19.1882 130.129C18.9148 128.081 18.9308 125.807 19.6707 123.856C20.9252 121.147 23.2091 119.518 25.1552 118.551C27.1013 117.583 28.7258 117.245 28.7258 117.245C28.7258 117.245 29.1761 118.793 29.4174 120.921C29.8355 122.985 29.9642 125.694 28.9349 128.339C27.4552 132.499 23.5468 135.16 21.9224 136.014C21.9224 136.014 23.3056 138.578 24.6888 141.142C26.3615 143.529 28.0181 145.915 28.0181 145.915C27.1657 143.642 26.3454 141.158 26.9244 138.594C27.616 135.337 29.7069 133.064 31.6047 131.564C33.5026 130.064 35.1914 129.306 35.1914 129.306C35.1914 129.306 36.1242 130.79 36.7997 133.031C37.6039 135.208 38.5207 137.949 38.006 141.078C37.4431 145.98 33.8243 149.995 32.3124 151.317C32.3124 151.317 34.162 153.43 36.0921 155.477C38.199 157.332 40.306 159.202 40.306 159.202C38.7298 156.913 37.0571 154.397 37.1214 151.301C37.0732 147.657 38.778 144.722 40.4668 142.674C42.1717 140.626 43.8122 139.385 43.8122 139.385C43.8122 139.385 45.1471 140.691 46.4017 142.851C46.9807 144.012 47.817 145.077 48.38 146.447C48.975 147.802 49.4093 149.35 49.538 151.075C50.2135 156.413 47.3024 161.879 46.0961 163.605C46.0961 163.605 46.7555 164.056 47.7366 164.733C48.2191 165.072 48.7981 165.475 49.4254 165.91C50.0848 166.265 50.7925 166.636 51.5002 167.023C54.3309 168.507 57.1616 169.99 57.1616 169.99L56.5665 171.312C56.5665 171.312 52.5134 169.216 48.5086 167.023C46.6268 165.733 44.7451 164.427 43.3458 163.459C42.6381 162.976 42.043 162.573 41.6409 162.282C41.2388 161.992 41.0297 161.782 41.0297 161.782C39.6948 163.379 35.6417 168.103 28.9188 167.41C24.7049 167.104 20.877 164.25 17.9658 161.718C17.2421 161.073 16.5826 160.46 15.9875 159.88C15.4568 159.251 15.0064 158.67 14.6526 158.186C13.9127 157.219 13.5107 156.59 13.5107 156.59C13.5107 156.59 15.0708 155.268 17.5798 154.252C18.8343 153.736 20.314 153.284 21.9385 153.091C23.5308 152.914 25.2999 152.93 27.2461 153.236C30.3824 153.784 33.0683 155.397 35.4648 156.864C35.4648 156.864 34.8858 156.445 34.1942 155.606C33.4865 154.8 32.5215 153.736 31.5726 152.672C30.6075 151.607 29.6586 150.543 28.9509 149.737C28.2915 148.898 27.8894 148.286 27.8894 148.286C26.3132 149.414 21.7455 152.559 16.1001 150.608C12.4813 149.479 9.76317 146.254 7.75272 143.48C6.77162 142.077 5.93526 140.804 5.48492 139.836C5.05066 138.852 4.8255 138.224 4.8255 138.224C4.8255 138.224 6.46602 137.353 8.86248 136.934C10.0688 136.724 11.4519 136.611 12.8995 136.756C14.4113 136.869 16.0358 137.192 17.6281 137.885C20.1371 138.949 22.1315 140.787 23.8363 142.529C23.8363 142.529 23.7238 142.384 23.5308 142.126C23.3699 141.836 23.1447 141.432 22.8874 140.933C22.3566 139.949 21.649 138.643 20.9574 137.337C20.2658 136.031 19.5259 134.741 19.0434 133.741C18.6413 132.709 18.3518 132.015 18.3518 132.015C16.6791 132.693 12.1114 134.321 7.70447 131.564C6.35344 130.693 5.03458 129.5 4.11781 128.113C3.21713 126.726 2.49336 125.227 1.91435 123.84C0.772415 121.066 0.289917 118.809 0.289917 118.809C0.289917 118.809 1.88219 118.357 4.08565 118.438L4.10173 118.373Z" fill="#2B91FF"/>
<path d="M195.899 118.373C193.679 118.438 190.832 118.986 188.371 120.808C186.506 122.131 185.267 124.033 184.093 125.791C184.093 125.791 184.415 125.082 184.672 123.969C184.962 122.856 185.364 121.373 185.75 119.889C186.136 118.406 186.538 116.922 186.827 115.81C187.004 114.665 187.117 113.907 187.117 113.907C188.741 114.149 192.907 114.536 196.076 111.391C197.057 110.392 197.909 109.134 198.488 107.795C198.987 106.457 199.34 105.038 199.566 103.764C200.016 101.2 200 99.2007 200 99.2007C200 99.2007 198.552 99.1039 196.655 99.5715C194.757 100.023 192.425 101.023 190.639 103.038C189.369 104.441 188.661 106.183 188.018 107.828C188.018 107.828 188.082 107.489 188.114 106.973C188.146 106.457 188.162 105.764 188.195 105.086C188.243 103.7 188.307 102.329 188.307 102.329C188.95 101.539 189.948 100.233 190.704 98.5234C191.363 96.8303 191.813 94.7179 191.669 92.4765C191.604 89.445 189.803 86.9294 188.5 85.2363C187.117 83.5431 185.862 82.6401 185.862 82.6401C185.862 82.6401 184.994 84.0269 184.238 86.0103C183.402 88.0259 183 90.5415 183.032 93.2344C183.144 95.2178 183.868 97.0399 184.72 98.604C185.444 100.168 186.265 101.474 186.86 102.281C186.86 102.281 186.795 104.909 186.586 107.537C186.2 110.15 185.814 112.762 185.814 112.762C185.621 111.037 185.155 109.214 184.174 107.763C182.774 105.667 180.362 104.667 178.544 104.183C176.679 103.7 175.231 103.7 175.231 103.7C175.231 103.7 175.199 104.07 175.199 104.667C175.199 105.28 175.263 106.118 175.247 107.07C175.295 108.989 175.714 111.407 177.129 113.504C179.075 116.761 182.951 118.244 184.56 118.68C184.56 118.68 183.788 121.582 183.016 124.517C181.922 127.323 180.812 130.129 180.812 130.129C181.086 128.081 181.07 125.807 180.33 123.856C179.075 121.147 176.791 119.518 174.845 118.551C172.899 117.583 171.275 117.245 171.275 117.245C171.275 117.245 170.824 118.793 170.583 120.921C170.165 122.985 170.036 125.694 171.065 128.339C172.545 132.499 176.454 135.16 178.078 136.014C178.078 136.014 176.695 138.578 175.312 141.142C173.639 143.529 171.982 145.915 171.982 145.915C172.835 143.642 173.655 141.158 173.076 138.594C172.384 135.337 170.293 133.063 168.396 131.564C166.498 130.064 164.809 129.306 164.809 129.306C164.809 129.306 163.876 130.79 163.201 133.031C162.396 135.208 161.48 137.949 161.994 141.078C162.557 145.98 166.176 149.995 167.688 151.317C167.688 151.317 165.838 153.43 163.908 155.477C161.801 157.332 159.694 159.202 159.694 159.202C161.271 156.913 162.943 154.397 162.879 151.301C162.927 147.657 161.222 144.722 159.534 142.674C157.829 140.626 156.188 139.385 156.188 139.385C156.188 139.385 154.853 140.691 153.599 142.851C153.02 144.012 152.183 145.077 151.62 146.447C151.025 147.802 150.591 149.35 150.462 151.075C149.787 156.413 152.698 161.879 153.904 163.605C153.904 163.605 153.245 164.056 152.264 164.733C151.781 165.072 151.202 165.475 150.575 165.91C149.916 166.265 149.208 166.636 148.5 167.023C145.669 168.507 142.839 169.99 142.839 169.99L143.434 171.312C143.434 171.312 147.487 169.216 151.492 167.023C153.374 165.733 155.239 164.427 156.655 163.459C157.362 162.976 157.957 162.573 158.359 162.282C158.762 161.992 158.971 161.782 158.971 161.782C160.306 163.379 164.359 168.103 171.082 167.41C175.295 167.104 179.123 164.25 182.035 161.718C182.758 161.073 183.418 160.46 184.013 159.88C184.544 159.251 184.994 158.67 185.348 158.186C186.088 157.219 186.49 156.59 186.49 156.59C186.49 156.59 184.93 155.268 182.421 154.252C181.166 153.736 179.686 153.284 178.062 153.091C176.47 152.914 174.7 152.93 172.754 153.236C169.618 153.784 166.932 155.397 164.536 156.864C164.536 156.864 165.115 156.445 165.806 155.606C166.514 154.8 167.479 153.736 168.428 152.672C169.393 151.607 170.342 150.543 171.049 149.737C171.709 148.898 172.111 148.286 172.111 148.286C173.687 149.414 178.255 152.559 183.9 150.608C187.519 149.479 190.237 146.254 192.248 143.48C193.229 142.077 194.065 140.804 194.515 139.836C194.95 138.852 195.175 138.224 195.175 138.224C195.175 138.224 193.534 137.353 191.138 136.934C189.932 136.724 188.548 136.611 187.101 136.756C185.589 136.869 183.965 137.192 182.372 137.885C179.863 138.949 177.869 140.787 176.164 142.529C176.164 142.529 176.277 142.384 176.47 142.126C176.63 141.836 176.856 141.432 177.113 140.933C177.644 139.949 178.351 138.643 179.043 137.337C179.735 136.031 180.474 134.741 180.957 133.741C181.359 132.709 181.649 132.015 181.649 132.015C183.321 132.693 187.889 134.321 192.296 131.564C193.647 130.693 194.966 129.5 195.883 128.113C196.783 126.726 197.507 125.227 198.086 123.84C199.228 121.066 199.71 118.809 199.71 118.809C199.71 118.809 198.118 118.357 195.915 118.438L195.899 118.373Z" fill="#2B91FF"/>
<path d="M99.9922 165.475L96.5664 172.441L88.8784 173.57L94.4434 179.004L93.1245 186.68L99.9922 183.052L106.876 186.68L105.557 179.004L111.122 173.57L103.434 172.441L99.9922 165.475Z" fill="#2B91FF"/>
<path d="M124.519 167.572L121.769 173.167L115.593 174.07L120.064 178.424L119.003 184.568L124.519 181.665L130.036 184.568L128.975 178.424L133.446 174.07L127.27 173.167L124.519 167.572Z" fill="#2B91FF"/>
<path d="M75.4798 167.572L72.7134 173.167L66.5534 174.07L71.0246 178.424L69.9631 184.568L75.4798 181.665L80.9965 184.568L79.935 178.424L84.3901 174.07L78.2301 173.167L75.4798 167.572Z" fill="#2B91FF"/>
<ellipse cx="71.4286" cy="71.4286" rx="71.4286" ry="71.4286" transform="matrix(-1 0 0 1 171.428 14.2856)" fill="#2B91FF"/>
<path fill-rule="evenodd" clip-rule="evenodd" d="M114.166 67.5921C114.166 73.3632 118.844 78.0417 124.615 78.0417C130.387 78.0417 135.065 73.3632 135.065 67.5921C135.065 61.821 130.387 57.1426 124.615 57.1426C118.844 57.1426 114.166 61.821 114.166 67.5921ZM65.0531 67.5921C65.0531 73.3632 69.7315 78.0417 75.5026 78.0417C81.2738 78.0417 85.9522 73.3632 85.9522 67.5921C85.9522 61.821 81.2738 57.1426 75.5026 57.1426C69.7315 57.1426 65.0531 61.821 65.0531 67.5921ZM102.672 75.9515C106.134 75.9515 108.941 78.7586 108.941 82.2213C108.941 85.2649 106.773 87.802 103.896 88.3715V94.7209C106.009 95.995 108.653 97.4588 111.4 98.7424C115.553 100.683 119.431 101.964 122.003 101.964C125.01 101.964 127.156 101.494 128.562 100.983C129.808 100.531 130.355 100.093 130.465 100.005C130.488 99.9869 130.492 99.9834 130.481 99.9972C131.629 98.6196 133.676 98.4335 135.053 99.5814C136.431 100.729 136.617 102.777 135.469 104.154C134.53 105.281 132.875 106.325 130.779 107.087C128.588 107.882 125.684 108.457 122.003 108.457C118.854 108.457 115.185 107.372 111.74 105.976C109.829 109.381 105.935 114.615 100.059 114.615C94.1825 114.615 90.2889 109.381 88.3781 105.976C84.9329 107.372 81.264 108.457 78.1153 108.457C74.4345 108.457 71.5297 107.882 69.3396 107.087C67.243 106.325 65.5877 105.281 64.649 104.154C63.5011 102.777 63.6872 100.729 65.0648 99.5814C66.4423 98.4335 68.4896 98.6196 69.6375 99.9972C69.6315 99.99 69.6298 99.9875 69.6328 99.9893C69.6355 99.991 69.6422 99.9963 69.6529 100.005C69.7633 100.093 70.3101 100.531 71.5563 100.983C72.9625 101.494 75.1083 101.964 78.1153 101.964C80.6873 101.964 84.5647 100.683 88.7186 98.7424C91.4146 97.4825 94.0112 96.0492 96.104 94.7919V88.3469C93.2866 87.7321 91.1771 85.223 91.1771 82.2213C91.1771 78.7586 93.9842 75.9515 97.4468 75.9515H102.672Z" fill="white"/>
<path d="M62.7238 240.62H59.1398V221.272H62.7238V240.62ZM48.1358 236.7C44.1318 236.7 40.9118 234.404 40.9118 229.504V229.084C40.9118 224.128 44.1318 221.832 48.1358 221.832C52.1118 221.832 55.3038 224.128 55.3038 229.084V229.504C55.3038 234.404 52.1118 236.7 48.1358 236.7ZM48.1358 233.564C50.0958 233.564 51.7478 232.276 51.7478 229.476V229.084C51.7478 226.284 50.0958 224.968 48.1358 224.968C46.1198 224.968 44.4958 226.284 44.4958 229.084V229.476C44.4958 232.276 46.1198 233.564 48.1358 233.564ZM63.7038 247.424H44.9718V238.856H48.5558V244.176H63.7038V247.424ZM69.4226 231.94L68.5266 229C73.8746 227.936 76.5346 226.424 77.2346 224.828H69.8706V221.776H87.9866V224.828H80.8186C80.7346 225.36 80.5946 225.864 80.3706 226.34L89.3026 228.972L88.1826 231.94L78.1306 228.888C76.2826 230.176 73.4266 231.184 69.4226 231.94ZM66.5946 236V232.948H91.2346V236H66.5946ZM75.8066 238.016H82.0226C86.2226 238.016 88.6586 240.088 88.6586 242.86C88.6586 245.66 86.2226 247.704 82.0226 247.704H75.8066C71.6346 247.704 69.1986 245.66 69.1986 242.86C69.1986 240.088 71.6346 238.016 75.8066 238.016ZM76.4786 244.624H81.3786C83.9826 244.624 85.0746 243.924 85.0746 242.832C85.0746 241.74 83.9826 241.096 81.3786 241.096H76.4786C73.8746 241.096 72.7546 241.74 72.7546 242.832C72.7546 243.924 73.8746 244.624 76.4786 244.624ZM121.567 221.272V228.804H125.067V232.08H121.567V241.292H117.983V221.272H121.567ZM116.107 234.712L116.471 237.82C112.523 238.352 107.539 238.66 103.843 238.66H99.8667L99.6707 235.496H104.179C104.739 235.496 105.355 235.496 105.999 235.468V233.256C102.835 232.808 100.567 230.988 100.567 227.796V227.46C100.567 223.708 103.647 221.832 107.651 221.832C111.655 221.832 114.735 223.708 114.735 227.46V227.796C114.735 230.904 112.607 232.696 109.583 233.2V235.3C111.739 235.16 114.035 234.964 116.107 234.712ZM104.039 227.488V227.74C104.039 229.504 105.579 230.372 107.651 230.372C109.695 230.372 111.235 229.504 111.235 227.74V227.488C111.235 225.724 109.695 224.828 107.651 224.828C105.579 224.828 104.039 225.724 104.039 227.488ZM104.095 240.34H107.651V244.176H122.799V247.424H104.095V240.34ZM129.525 228.692H144.841V226.088H129.385V222.896H148.425V231.772H133.081V234.488H148.985V237.624H129.525V228.692ZM145.065 239.052V242.328H151.281V245.604H126.641V242.328H132.885V239.052H136.357V242.328H141.593V239.052H145.065ZM158.232 238.688H154.928L154.564 222.336H158.596L158.232 238.688ZM156.58 246.304C155.32 246.304 154.312 245.296 154.312 244.036C154.312 242.776 155.32 241.74 156.58 241.74C157.84 241.74 158.848 242.776 158.848 244.036C158.848 245.296 157.84 246.304 156.58 246.304Z" fill="#2B91FF"/>
</svg>
