<svg width="24" height="24" viewBox="0 0 24 24" fill="none" xmlns="http://www.w3.org/2000/svg">
<path d="M15.9999 12.9995C15.5341 13.6205 14.9302 14.1245 14.2359 14.4716C13.5417 14.8188 12.7761 14.9995 11.9999 14.9995C11.2237 14.9995 10.4581 14.8188 9.76381 14.4716C9.06953 14.1245 8.46561 13.6205 7.99988 12.9995C7.60791 13.5279 7.11466 13.9729 6.54891 14.3087C5.98315 14.6444 5.35621 14.8642 4.70465 14.9551C4.05308 15.0461 3.38992 15.0064 2.75386 14.8383C2.11779 14.6703 1.52154 14.3774 0.999878 13.9765V18.9995C1.00147 20.3251 1.52876 21.5959 2.4661 22.5333C3.40344 23.4706 4.67428 23.9979 5.99988 23.9995H17.9999C19.3255 23.9979 20.5963 23.4706 21.5337 22.5333C22.471 21.5959 22.9983 20.3251 22.9999 18.9995V13.9735C22.4784 14.3745 21.8823 14.6677 21.2464 14.8359C20.6104 15.0042 19.9473 15.0442 19.2958 14.9535C18.6442 14.8628 18.0172 14.6434 17.4513 14.3079C16.8855 13.9724 16.3921 13.5276 15.9999 12.9995Z" fill="current"/>
<path d="M21.6999 3.13131C21.5063 2.24041 21.0124 1.44311 20.3009 0.873073C19.5894 0.303033 18.7036 -0.00510304 17.7919 0.000314373H16.9999V3.00031C16.9999 3.26553 16.8945 3.51988 16.707 3.70742C16.5194 3.89496 16.2651 4.00031 15.9999 4.00031C15.7347 4.00031 15.4803 3.89496 15.2928 3.70742C15.1052 3.51988 14.9999 3.26553 14.9999 3.00031V0.000314373H8.99988V3.00031C8.99988 3.26553 8.89452 3.51988 8.70698 3.70742C8.51945 3.89496 8.26509 4.00031 7.99988 4.00031C7.73466 4.00031 7.48031 3.89496 7.29277 3.70742C7.10524 3.51988 6.99988 3.26553 6.99988 3.00031V0.000314373H6.20788C5.29606 -0.00505412 4.41012 0.303224 3.6986 0.873461C2.98708 1.4437 2.49324 2.24122 2.29988 3.13231L1.02188 8.90031L0.999878 10.0203C1.00119 10.4143 1.08009 10.8041 1.23207 11.1676C1.38404 11.5311 1.60612 11.8611 1.88563 12.1387C2.45011 12.6994 3.21423 13.013 4.00988 13.0103C4.40384 13.009 4.79369 12.9301 5.15717 12.7781C5.52064 12.6261 5.85062 12.4041 6.12827 12.1246C6.40592 11.8451 6.62579 11.5136 6.77534 11.1491C6.92489 10.7846 7.00119 10.3943 6.99988 10.0003C6.99988 9.7351 7.10524 9.48074 7.29277 9.29321C7.48031 9.10567 7.73466 9.00031 7.99988 9.00031C8.26509 9.00031 8.51945 9.10567 8.70698 9.29321C8.89452 9.48074 8.99988 9.7351 8.99988 10.0003C8.99988 10.796 9.31595 11.559 9.87856 12.1216C10.4412 12.6842 11.2042 13.0003 11.9999 13.0003C12.7955 13.0003 13.5586 12.6842 14.1212 12.1216C14.6838 11.559 14.9999 10.796 14.9999 10.0003C14.9999 9.7351 15.1052 9.48074 15.2928 9.29321C15.4803 9.10567 15.7347 9.00031 15.9999 9.00031C16.2651 9.00031 16.5194 9.10567 16.707 9.29321C16.8945 9.48074 16.9999 9.7351 16.9999 10.0003C16.9999 10.796 17.3159 11.559 17.8786 12.1216C18.4412 12.6842 19.2042 13.0003 19.9999 13.0003C20.7955 13.0003 21.5586 12.6842 22.1212 12.1216C22.6838 11.559 22.9999 10.796 22.9999 10.0003V9.10732L21.6999 3.13131Z" fill="current"/>
</svg>
