<svg width="326" height="62" viewBox="0 0 326 62" fill="none" xmlns="http://www.w3.org/2000/svg">
<rect width="326" height="62" rx="8" fill="#1877F2"/>
<path d="M83.9531 37V25.6875H91.4062V27.625H86.2969V30.375H90.9219V32.3125H86.2969V37H83.9531ZM92.3906 34.625C92.3984 32.7344 93.9141 32.1172 95.5469 32.0156C96.1562 31.9766 97.2969 31.9219 97.6562 31.9062V31.2188C97.6484 30.5078 97.1641 30.1016 96.2969 30.0938C95.5078 30.1016 95.0156 30.4531 94.8906 31.0312H92.6875C92.8281 29.5625 94.1094 28.4062 96.3594 28.4062C98.2109 28.4062 99.9609 29.2344 99.9531 31.2812V37H97.7656V35.8281H97.7031C97.2891 36.6094 96.4766 37.1641 95.2188 37.1562C93.5938 37.1641 92.3984 36.3047 92.3906 34.625ZM94.6094 34.5625C94.6094 35.2109 95.1328 35.5547 95.875 35.5625C96.9297 35.5547 97.6641 34.8672 97.6562 33.9688V33.3516C97.3047 33.3672 96.3125 33.4219 95.9219 33.4531C95.1172 33.5234 94.6094 33.9062 94.6094 34.5625ZM105.531 37.1719C102.93 37.1641 101.367 35.3672 101.375 32.7812C101.367 30.1875 102.961 28.4062 105.531 28.4062C107.719 28.4062 109.203 29.6797 109.297 31.625H107.125C106.984 30.7891 106.438 30.2109 105.562 30.2031C104.453 30.2109 103.719 31.1406 103.719 32.75C103.719 34.3906 104.438 35.3281 105.562 35.3281C106.375 35.3281 106.977 34.8203 107.125 33.9219H109.297C109.195 35.8438 107.781 37.1641 105.531 37.1719ZM114.578 37.1719C111.977 37.1641 110.383 35.4844 110.391 32.7969C110.383 30.1797 112 28.4062 114.484 28.4062C116.711 28.4062 118.469 29.8125 118.469 32.7031V33.3594H112.672C112.672 34.6406 113.43 35.4297 114.625 35.4375C115.414 35.4297 115.977 35.0859 116.203 34.5781H118.406C118.078 36.1484 116.672 37.1641 114.578 37.1719ZM112.672 31.9062H116.281C116.273 30.875 115.562 30.1328 114.531 30.1406C113.469 30.1328 112.719 30.9297 112.672 31.9062ZM119.969 37V25.6875H122.281V29.9375H122.344C122.664 29.25 123.336 28.4062 124.766 28.4062C126.641 28.4062 128.211 29.8594 128.219 32.7656C128.211 35.6016 126.703 37.1406 124.766 37.1406C123.383 37.1406 122.68 36.3438 122.344 35.6406H122.25V37H119.969ZM122.234 32.75C122.227 34.2812 122.891 35.2891 124.031 35.2969C125.211 35.2891 125.852 34.25 125.844 32.75C125.852 31.2734 125.227 30.25 124.031 30.25C122.883 30.25 122.227 31.2266 122.234 32.75ZM133.516 37.1719C130.953 37.1641 129.352 35.4062 129.359 32.7812C129.352 30.1641 130.953 28.4062 133.516 28.4062C136.086 28.4062 137.68 30.1641 137.688 32.7812C137.68 35.4062 136.086 37.1641 133.516 37.1719ZM131.703 32.7812C131.703 34.2656 132.32 35.3672 133.531 35.375C134.711 35.3672 135.336 34.2656 135.328 32.7812C135.336 31.2891 134.711 30.1719 133.531 30.1719C132.32 30.1719 131.703 31.2891 131.703 32.7812ZM142.953 37.1719C140.391 37.1641 138.789 35.4062 138.797 32.7812C138.789 30.1641 140.391 28.4062 142.953 28.4062C145.523 28.4062 147.117 30.1641 147.125 32.7812C147.117 35.4062 145.523 37.1641 142.953 37.1719ZM141.141 32.7812C141.141 34.2656 141.758 35.3672 142.969 35.375C144.148 35.3672 144.773 34.2656 144.766 32.7812C144.773 31.2891 144.148 30.1719 142.969 30.1719C141.758 30.1719 141.141 31.2891 141.141 32.7812ZM148.578 37V25.6875H150.891V31.7656H151.016L153.766 28.5156H156.422L153.258 32.1875L156.594 37H153.875L151.539 33.5469L150.891 34.2812V37H148.578ZM163.5 24.9375C166.5 24.9453 168.852 26.5703 168.859 29.0312C168.852 31.5156 166.5 33.1328 163.5 33.125C160.492 33.1328 158.156 31.5156 158.156 29.0312C158.156 26.5703 160.492 24.9453 163.5 24.9375ZM157.016 36.7031V35.0938H170.031V36.7031H157.016ZM160.094 29.0312C160.086 30.5781 161.523 31.5 163.5 31.5C165.461 31.5 166.883 30.5781 166.891 29.0312C166.883 27.5078 165.461 26.5469 163.5 26.5625C161.523 26.5469 160.086 27.5078 160.094 29.0312ZM183.859 35.2188V36.8594H170.844V35.2188H176.328V33.0781H172.344V28.2969H180.391V26.7344H172.328V25.1406H182.359V29.8594H174.344V31.4531H182.688V33.0781H178.312V35.2188H183.859ZM193.891 27.4375C193.883 30.0469 195.07 32.6641 197.484 33.6875L196.312 35.2812C194.688 34.5469 193.562 33.125 192.914 31.3672C192.273 33.2891 191.109 34.8359 189.375 35.625L188.172 33.9688C190.656 32.9219 191.867 30.1953 191.875 27.4375V25.3125H193.891V27.4375ZM198.25 38.4688V24.2188H200.266V38.4688H198.25ZM210.266 25.0469V26.6406H207.438C207.445 28.3047 208.445 30.0156 210.75 30.75L209.734 32.2969C208.156 31.7812 207.07 30.7656 206.453 29.5C205.82 30.8828 204.68 31.9922 203.031 32.5312L201.969 31C204.32 30.2422 205.398 28.4141 205.422 26.6406H202.516V25.0469H210.266ZM203.891 34.9844V33.4062H213.469V38.4375H211.469V34.9844H203.891ZM211.469 32.7969V24.2188H213.469V27.6719H215.391V29.3281H213.469V32.7969H211.469ZM227.234 24.2188V29.7812H229.328V31.4219H227.234V38.4375H225.266V24.2188H227.234ZM215.938 27.9375V26.3438H219.156V24.4375H221.156V26.3438H224.297V27.9375H215.938ZM216.516 32.125C216.508 30.1406 218.055 28.7266 220.156 28.7344C222.227 28.7266 223.781 30.1406 223.781 32.125C223.781 34.1094 222.227 35.5078 220.156 35.5156C218.055 35.5078 216.508 34.1094 216.516 32.125ZM218.422 32.125C218.422 33.2266 219.148 33.8828 220.156 33.875C221.148 33.8828 221.875 33.2266 221.875 32.125C221.875 31.0312 221.148 30.3594 220.156 30.3438C219.148 30.3594 218.422 31.0312 218.422 32.125ZM241.797 24.2188V38.4375H239.781V24.2188H241.797ZM229.891 34.4062C233.562 32.6719 235.18 30.4219 235.5 27.2656H230.656V25.7031H237.531C237.523 30.0156 236.016 33.6016 230.938 36L229.891 34.4062Z" fill="white"/>
<g clip-path="url(#clip0_2079_607)">
<rect width="22" height="22" transform="translate(20 20)" fill="#1877F2"/>
<path d="M41.5417 31.0641C41.5417 25.2421 36.822 20.5224 31 20.5224C25.178 20.5224 20.4584 25.2421 20.4584 31.0641C20.4584 36.3257 24.3133 40.6868 29.3529 41.4777V34.1113H26.6763V31.0641H29.3529V28.7416C29.3529 26.0996 30.9267 24.6402 33.3346 24.6402C34.488 24.6402 35.6944 24.8461 35.6944 24.8461V27.4404H34.3651C33.0556 27.4404 32.6472 28.253 32.6472 29.0866V31.0641H35.5708L35.1035 34.1113H32.6472V41.4777C37.6868 40.6868 41.5417 36.3257 41.5417 31.0641Z" fill="white"/>
</g>
<defs>
<clipPath id="clip0_2079_607">
<rect width="22" height="22" fill="white" transform="translate(20 20)"/>
</clipPath>
</defs>
</svg>
