<svg width="334" height="70" viewBox="0 0 334 70" fill="none" xmlns="http://www.w3.org/2000/svg">
<g filter="url(#filter0_d_2079_596)">
<rect x="4" y="2" width="326" height="62" rx="8" fill="#F2F2F2" shape-rendering="crispEdges"/>
<path d="M112.742 31.3281C112.422 30.2656 111.57 29.6172 110.336 29.6094C108.586 29.6172 107.398 30.9531 107.398 33.3281C107.398 35.7188 108.547 37.0703 110.352 37.0781C111.969 37.0703 112.93 36.1562 112.961 34.7344H110.508V32.9688H115.227V34.375C115.227 37.3438 113.188 39.1562 110.336 39.1562C107.164 39.1562 105.008 36.9375 105.008 33.3594C105.008 29.6875 107.305 27.5312 110.289 27.5312C112.844 27.5312 114.805 29.1016 115.117 31.3281H112.742ZM120.711 39.1719C118.148 39.1641 116.547 37.4062 116.555 34.7812C116.547 32.1641 118.148 30.4062 120.711 30.4062C123.281 30.4062 124.875 32.1641 124.883 34.7812C124.875 37.4062 123.281 39.1641 120.711 39.1719ZM118.898 34.7812C118.898 36.2656 119.516 37.3672 120.727 37.375C121.906 37.3672 122.531 36.2656 122.523 34.7812C122.531 33.2891 121.906 32.1719 120.727 32.1719C119.516 32.1719 118.898 33.2891 118.898 34.7812ZM130.148 39.1719C127.586 39.1641 125.984 37.4062 125.992 34.7812C125.984 32.1641 127.586 30.4062 130.148 30.4062C132.719 30.4062 134.312 32.1641 134.32 34.7812C134.312 37.4062 132.719 39.1641 130.148 39.1719ZM128.336 34.7812C128.336 36.2656 128.953 37.3672 130.164 37.375C131.344 37.3672 131.969 36.2656 131.961 34.7812C131.969 33.2891 131.344 32.1719 130.164 32.1719C128.953 32.1719 128.336 33.2891 128.336 34.7812ZM139.586 42.3594C137.242 42.3594 135.797 41.3047 135.664 39.7031H137.945C138.07 40.3828 138.711 40.6875 139.633 40.6875C140.703 40.6875 141.422 40.2266 141.43 39.0469V37.5H141.32C141.016 38.1875 140.266 38.8828 138.898 38.875C136.984 38.8828 135.445 37.5312 135.445 34.7031C135.445 31.8359 137.023 30.4062 138.898 30.4062C140.32 30.4062 141.008 31.25 141.32 31.9375H141.414V30.5156H143.711V39.0938C143.703 41.2578 142 42.3594 139.586 42.3594ZM137.82 34.7344C137.812 36.2031 138.445 37.1328 139.617 37.1406C140.773 37.1328 141.43 36.2422 141.43 34.7344C141.43 33.2266 140.781 32.25 139.617 32.25C138.438 32.25 137.812 33.2734 137.82 34.7344ZM147.82 27.6875V39H145.508V27.6875H147.82ZM153.461 39.1719C150.859 39.1641 149.266 37.4844 149.273 34.7969C149.266 32.1797 150.883 30.4062 153.367 30.4062C155.594 30.4062 157.352 31.8125 157.352 34.7031V35.3594H151.555C151.555 36.6406 152.312 37.4297 153.508 37.4375C154.297 37.4297 154.859 37.0859 155.086 36.5781H157.289C156.961 38.1484 155.555 39.1641 153.461 39.1719ZM151.555 33.9062H155.164C155.156 32.875 154.445 32.1328 153.414 32.1406C152.352 32.1328 151.602 32.9297 151.555 33.9062ZM171.336 37.2188V38.8594H158.32V37.2188H163.805V35.0781H159.82V30.2969H167.867V28.7344H159.805V27.1406H169.836V31.8594H161.82V33.4531H170.164V35.0781H165.789V37.2188H171.336ZM181.367 29.4375C181.359 32.0469 182.547 34.6641 184.961 35.6875L183.789 37.2812C182.164 36.5469 181.039 35.125 180.391 33.3672C179.75 35.2891 178.586 36.8359 176.852 37.625L175.648 35.9688C178.133 34.9219 179.344 32.1953 179.352 29.4375V27.3125H181.367V29.4375ZM185.727 40.4688V26.2188H187.742V40.4688H185.727ZM197.742 27.0469V28.6406H194.914C194.922 30.3047 195.922 32.0156 198.227 32.75L197.211 34.2969C195.633 33.7812 194.547 32.7656 193.93 31.5C193.297 32.8828 192.156 33.9922 190.508 34.5312L189.445 33C191.797 32.2422 192.875 30.4141 192.898 28.6406H189.992V27.0469H197.742ZM191.367 36.9844V35.4062H200.945V40.4375H198.945V36.9844H191.367ZM198.945 34.7969V26.2188H200.945V29.6719H202.867V31.3281H200.945V34.7969H198.945ZM214.711 26.2188V31.7812H216.805V33.4219H214.711V40.4375H212.742V26.2188H214.711ZM203.414 29.9375V28.3438H206.633V26.4375H208.633V28.3438H211.773V29.9375H203.414ZM203.992 34.125C203.984 32.1406 205.531 30.7266 207.633 30.7344C209.703 30.7266 211.258 32.1406 211.258 34.125C211.258 36.1094 209.703 37.5078 207.633 37.5156C205.531 37.5078 203.984 36.1094 203.992 34.125ZM205.898 34.125C205.898 35.2266 206.625 35.8828 207.633 35.875C208.625 35.8828 209.352 35.2266 209.352 34.125C209.352 33.0312 208.625 32.3594 207.633 32.3438C206.625 32.3594 205.898 33.0312 205.898 34.125ZM229.273 26.2188V40.4375H227.258V26.2188H229.273ZM217.367 36.4062C221.039 34.6719 222.656 32.4219 222.977 29.2656H218.133V27.7031H225.008C225 32.0156 223.492 35.6016 218.414 38L217.367 36.4062Z" fill="black" fill-opacity="0.85"/>
<mask id="mask0_2079_596" style="mask-type:luminance" maskUnits="userSpaceOnUse" x="24" y="24" width="18" height="18">
<path d="M42 24H24V42H42V24Z" fill="white"/>
</mask>
<g mask="url(#mask0_2079_596)">
<path d="M41.64 33.2047C41.64 32.5665 41.5828 31.9528 41.4764 31.3637H33V34.8451H37.8436C37.635 35.9701 37.001 36.9233 36.0478 37.5615V39.8197H38.9564C40.6582 38.2528 41.64 35.9455 41.64 33.2047Z" fill="#4285F4"/>
<path d="M33.0002 41.9999C35.4302 41.9999 37.4674 41.194 38.9565 39.8195L36.0479 37.5613C35.242 38.1013 34.211 38.4203 33.0002 38.4203C30.656 38.4203 28.672 36.8371 27.9642 34.7099H24.9574V37.0417C26.4383 39.9831 29.482 41.9999 33.0002 41.9999Z" fill="#34A853"/>
<path d="M27.964 34.7099C27.784 34.1699 27.6818 33.5931 27.6818 32.9999C27.6818 32.4067 27.784 31.8299 27.964 31.2899V28.9581H24.9572C24.3478 30.1731 24 31.5477 24 32.9999C24 34.4522 24.3478 35.8267 24.9572 37.0417L27.964 34.7099Z" fill="#FBBC04"/>
<path d="M33.0002 27.5796C34.3215 27.5796 35.5078 28.0336 36.4406 28.9254L39.022 26.344C37.4633 24.8918 35.426 24 33.0002 24C29.482 24 26.4383 26.0168 24.9574 28.9582L27.9642 31.29C28.672 29.1628 30.656 27.5796 33.0002 27.5796Z" fill="#E94235"/>
</g>
</g>
<defs>
<filter id="filter0_d_2079_596" x="0" y="0" width="334" height="70" filterUnits="userSpaceOnUse" color-interpolation-filters="sRGB">
<feFlood flood-opacity="0" result="BackgroundImageFix"/>
<feColorMatrix in="SourceAlpha" type="matrix" values="0 0 0 0 0 0 0 0 0 0 0 0 0 0 0 0 0 0 127 0" result="hardAlpha"/>
<feOffset dy="2"/>
<feGaussianBlur stdDeviation="2"/>
<feComposite in2="hardAlpha" operator="out"/>
<feColorMatrix type="matrix" values="0 0 0 0 0 0 0 0 0 0 0 0 0 0 0 0 0 0 0.1 0"/>
<feBlend mode="normal" in2="BackgroundImageFix" result="effect1_dropShadow_2079_596"/>
<feBlend mode="normal" in="SourceGraphic" in2="effect1_dropShadow_2079_596" result="shape"/>
</filter>
</defs>
</svg>
