<svg width="326" height="62" viewBox="0 0 326 62" fill="none" xmlns="http://www.w3.org/2000/svg">
<rect width="326" height="62" rx="8" fill="#FEE500"/>
<path d="M113.133 37V25.6875H115.477V30.7031H115.633L119.742 25.6875H122.57L118.352 30.75L122.617 37H119.805L116.664 32.3281L115.477 33.7656V37H113.133ZM123.289 34.625C123.297 32.7344 124.812 32.1172 126.445 32.0156C127.055 31.9766 128.195 31.9219 128.555 31.9062V31.2188C128.547 30.5078 128.062 30.1016 127.195 30.0938C126.406 30.1016 125.914 30.4531 125.789 31.0312H123.586C123.727 29.5625 125.008 28.4062 127.258 28.4062C129.109 28.4062 130.859 29.2344 130.852 31.2812V37H128.664V35.8281H128.602C128.188 36.6094 127.375 37.1641 126.117 37.1562C124.492 37.1641 123.297 36.3047 123.289 34.625ZM125.508 34.5625C125.508 35.2109 126.031 35.5547 126.773 35.5625C127.828 35.5547 128.562 34.8672 128.555 33.9688V33.3516C128.203 33.3672 127.211 33.4219 126.82 33.4531C126.016 33.5234 125.508 33.9062 125.508 34.5625ZM132.617 37V25.6875H134.93V31.7656H135.055L137.805 28.5156H140.461L137.297 32.1875L140.633 37H137.914L135.578 33.5469L134.93 34.2812V37H132.617ZM141.133 34.625C141.141 32.7344 142.656 32.1172 144.289 32.0156C144.898 31.9766 146.039 31.9219 146.398 31.9062V31.2188C146.391 30.5078 145.906 30.1016 145.039 30.0938C144.25 30.1016 143.758 30.4531 143.633 31.0312H141.43C141.57 29.5625 142.852 28.4062 145.102 28.4062C146.953 28.4062 148.703 29.2344 148.695 31.2812V37H146.508V35.8281H146.445C146.031 36.6094 145.219 37.1641 143.961 37.1562C142.336 37.1641 141.141 36.3047 141.133 34.625ZM143.352 34.5625C143.352 35.2109 143.875 35.5547 144.617 35.5625C145.672 35.5547 146.406 34.8672 146.398 33.9688V33.3516C146.047 33.3672 145.055 33.4219 144.664 33.4531C143.859 33.5234 143.352 33.9062 143.352 34.5625ZM154.273 37.1719C151.711 37.1641 150.109 35.4062 150.117 32.7812C150.109 30.1641 151.711 28.4062 154.273 28.4062C156.844 28.4062 158.438 30.1641 158.445 32.7812C158.438 35.4062 156.844 37.1641 154.273 37.1719ZM152.461 32.7812C152.461 34.2656 153.078 35.3672 154.289 35.375C155.469 35.3672 156.094 34.2656 156.086 32.7812C156.094 31.2891 155.469 30.1719 154.289 30.1719C153.078 30.1719 152.461 31.2891 152.461 32.7812ZM172.43 35.2188V36.8594H159.414V35.2188H164.898V33.0781H160.914V28.2969H168.961V26.7344H160.898V25.1406H170.93V29.8594H162.914V31.4531H171.258V33.0781H166.883V35.2188H172.43ZM182.461 27.4375C182.453 30.0469 183.641 32.6641 186.055 33.6875L184.883 35.2812C183.258 34.5469 182.133 33.125 181.484 31.3672C180.844 33.2891 179.68 34.8359 177.945 35.625L176.742 33.9688C179.227 32.9219 180.438 30.1953 180.445 27.4375V25.3125H182.461V27.4375ZM186.82 38.4688V24.2188H188.836V38.4688H186.82ZM198.836 25.0469V26.6406H196.008C196.016 28.3047 197.016 30.0156 199.32 30.75L198.305 32.2969C196.727 31.7812 195.641 30.7656 195.023 29.5C194.391 30.8828 193.25 31.9922 191.602 32.5312L190.539 31C192.891 30.2422 193.969 28.4141 193.992 26.6406H191.086V25.0469H198.836ZM192.461 34.9844V33.4062H202.039V38.4375H200.039V34.9844H192.461ZM200.039 32.7969V24.2188H202.039V27.6719H203.961V29.3281H202.039V32.7969H200.039ZM215.805 24.2188V29.7812H217.898V31.4219H215.805V38.4375H213.836V24.2188H215.805ZM204.508 27.9375V26.3438H207.727V24.4375H209.727V26.3438H212.867V27.9375H204.508ZM205.086 32.125C205.078 30.1406 206.625 28.7266 208.727 28.7344C210.797 28.7266 212.352 30.1406 212.352 32.125C212.352 34.1094 210.797 35.5078 208.727 35.5156C206.625 35.5078 205.078 34.1094 205.086 32.125ZM206.992 32.125C206.992 33.2266 207.719 33.8828 208.727 33.875C209.719 33.8828 210.445 33.2266 210.445 32.125C210.445 31.0312 209.719 30.3594 208.727 30.3438C207.719 30.3594 206.992 31.0312 206.992 32.125ZM230.367 24.2188V38.4375H228.352V24.2188H230.367ZM218.461 34.4062C222.133 32.6719 223.75 30.4219 224.07 27.2656H219.227V25.7031H226.102C226.094 30.0156 224.586 33.6016 219.508 36L218.461 34.4062Z" fill="black" fill-opacity="0.85"/>
<path fill-rule="evenodd" clip-rule="evenodd" d="M29.0001 22.6C24.0292 22.6 20 25.7129 20 29.5523C20 31.94 21.5584 34.045 23.9315 35.297L22.933 38.9445C22.8448 39.2668 23.2134 39.5237 23.4965 39.337L27.8734 36.4482C28.2427 36.4839 28.6181 36.5047 29.0001 36.5047C33.9705 36.5047 38 33.3918 38 29.5523C38 25.7129 33.9705 22.6 29.0001 22.6Z" fill="black"/>
</svg>
