<svg width="100" height="89" viewBox="0 0 100 89" fill="none" xmlns="http://www.w3.org/2000/svg">
<g clip-path="url(#clip0_4086_2714)">
<path d="M34.0157 29.6652C31.6014 29.6346 29.2748 28.8556 27.4365 27.4624C23.5981 24.3299 21.2728 19.9955 20.949 15.3695C19.9365 6.12096 25.6032 0.669711 31.724 0.0615444C33.1989 -0.0848374 34.6917 0.0347721 36.1135 0.413232C37.5352 0.791692 38.8567 1.42124 39.999 2.26429C41.7043 3.63179 43.0887 5.286 44.0727 7.13166C45.0567 8.97732 45.6207 10.978 45.7323 13.0185C46.6657 21.6329 41.5073 29.6652 34.0157 29.6652ZM11.8865 51.9152C9.66938 51.8701 7.55257 51.0836 5.95738 49.7124C2.43027 46.444 0.357276 42.1465 0.124057 37.6195C-0.792609 28.371 4.31572 22.9197 9.83655 22.3115C11.1823 22.1747 12.5454 22.3009 13.8307 22.6814C15.1161 23.0618 16.2926 23.6874 17.2782 24.5143C20.4481 27.3998 22.2923 31.2353 22.449 35.2685C23.2865 43.8829 18.1615 51.9152 11.8865 51.9152ZM65.9823 29.6652C58.4407 29.6652 53.3407 21.6329 54.2865 13.0073C54.3981 10.9669 54.9622 8.9662 55.9461 7.12054C56.9301 5.27487 58.3146 3.62067 60.0198 2.25317C61.1609 1.41499 62.4795 0.78914 63.8973 0.412685C65.3151 0.0362306 66.8034 -0.0831737 68.274 0.0615444C74.3948 0.669711 80.0615 6.12096 79.049 15.3695C78.7249 19.9966 76.3998 24.332 72.5615 27.4661C70.7219 28.8569 68.3958 29.6344 65.9823 29.6652V29.6652ZM87.7198 51.9152C79.8615 51.9152 75.9406 43.8829 76.824 35.2573C76.9992 31.1984 78.9082 27.352 82.1615 24.5032C83.1936 23.6701 84.4137 23.0426 85.7401 22.6628C87.0665 22.2829 88.4688 22.1594 89.8531 22.3004C95.5531 22.9086 100.832 28.3598 99.8906 37.6084C99.6259 42.1674 97.4719 46.4772 93.8448 49.705C92.1765 51.0849 89.9968 51.8714 87.7198 51.9152V51.9152ZM66.6656 88.9985C63.1046 89.0609 59.5879 88.287 56.4698 86.755C54.4748 85.8196 52.2539 85.3308 49.999 85.3308C47.7441 85.3308 45.5232 85.8196 43.5282 86.755C30.974 93.0109 16.3407 86.132 16.6657 70.4568C16.6657 53.265 35.4448 37.0818 49.999 37.0818C64.5531 37.0818 83.3323 53.265 83.3323 70.4568C83.3323 81.3742 76.4781 88.9985 66.6656 88.9985Z" fill="#C8E2FF"/>
</g>
<path d="M93.4878 66.797V44.3608H98.2925V66.797H93.4878Z" fill="#222022"/>
<path d="M84.6422 66.7968V63.6218L84.3342 62.9264V57.2417C84.3342 56.2338 84.016 55.4476 83.3795 54.8832C82.7635 54.3188 81.8087 54.0366 80.5151 54.0366C79.6322 54.0366 78.7595 54.1777 77.8971 54.4599C77.0553 54.7219 76.3366 55.0848 75.7412 55.5484L74.0164 52.2525C74.9198 51.6276 76.0081 51.1438 77.2811 50.8011C78.5542 50.4585 79.8478 50.2871 81.1619 50.2871C83.6875 50.2871 85.6484 50.8717 87.0446 52.0409C88.4409 53.2101 89.139 55.0344 89.139 57.5139V66.7968H84.6422ZM79.5911 67.0387C78.2975 67.0387 77.1887 66.827 76.2647 66.4037C75.3408 65.9602 74.6324 65.3655 74.1396 64.6197C73.6468 63.8738 73.4004 63.0372 73.4004 62.11C73.4004 61.1424 73.6365 60.2957 74.1088 59.57C74.6016 58.8443 75.3716 58.2799 76.4188 57.8767C77.4659 57.4534 78.8314 57.2417 80.5151 57.2417H84.9194V59.9933H81.0387C79.9094 59.9933 79.1291 60.1748 78.6979 60.5376C78.2873 60.9005 78.0819 61.354 78.0819 61.8983C78.0819 62.503 78.3181 62.9868 78.7903 63.3497C79.2831 63.6924 79.9504 63.8637 80.7923 63.8637C81.5931 63.8637 82.3117 63.6823 82.9483 63.3195C83.5848 62.9365 84.0468 62.3821 84.3342 61.6564L85.0734 63.8335C84.7244 64.8817 84.0879 65.678 83.1639 66.2223C82.2399 66.7665 81.049 67.0387 79.5911 67.0387Z" fill="#222022"/>
<path d="M61.1087 66.7971L54.1479 50.5293H59.1067L64.897 64.5292H62.433L68.439 50.5293H73.0589L66.0674 66.7971H61.1087Z" fill="#222022"/>
<path d="M47.3484 66.7969V50.5291H52.1531V66.7969H47.3484ZM49.7507 48.2613C48.8678 48.2613 48.1492 48.0093 47.5948 47.5054C47.0404 47.0014 46.7632 46.3765 46.7632 45.6307C46.7632 44.8848 47.0404 44.2599 47.5948 43.7559C48.1492 43.252 48.8678 43 49.7507 43C50.6337 43 51.3523 43.2419 51.9067 43.7257C52.4611 44.1893 52.7383 44.7941 52.7383 45.5399C52.7383 46.3261 52.4611 46.9813 51.9067 47.5054C51.3729 48.0093 50.6542 48.2613 49.7507 48.2613Z" fill="#222022"/>
<path d="M40.74 67.0391C38.7894 67.0391 37.2699 66.5553 36.1817 65.5877C35.0934 64.5999 34.5493 63.1384 34.5493 61.2032V46.9312H39.354V61.1428C39.354 61.8282 39.5388 62.3623 39.9084 62.7454C40.278 63.1082 40.7811 63.2896 41.4176 63.2896C42.1773 63.2896 42.8241 63.088 43.358 62.6849L44.6516 66.011C44.1588 66.3537 43.5633 66.6158 42.8652 66.7972C42.1876 66.9584 41.4792 67.0391 40.74 67.0391ZM31.9929 54.5208V50.8923H43.4812V54.5208H31.9929Z" fill="#222022"/>
<path d="M23.1763 67.0387C21.7595 67.0387 20.3941 66.8774 19.08 66.5549C17.7864 66.2122 16.7597 65.7889 16 65.2849L17.6016 61.8983C18.3613 62.3619 19.2545 62.7449 20.2811 63.0473C21.3283 63.3295 22.355 63.4706 23.3611 63.4706C24.4699 63.4706 25.2501 63.3396 25.7019 63.0776C26.1741 62.8155 26.4103 62.4527 26.4103 61.989C26.4103 61.606 26.2255 61.3238 25.8559 61.1424C25.5068 60.9408 25.0346 60.7896 24.4391 60.6888C23.8436 60.588 23.1866 60.4872 22.4679 60.3864C21.7698 60.2856 21.0614 60.1546 20.3427 59.9933C19.6241 59.8119 18.967 59.5499 18.3716 59.2072C17.7761 58.8645 17.2936 58.4008 16.924 57.8162C16.5749 57.2316 16.4004 56.4757 16.4004 55.5484C16.4004 54.5204 16.6981 53.6132 17.2936 52.8271C17.9096 52.0409 18.7925 51.4261 19.9423 50.9826C21.0922 50.5189 22.4679 50.2871 24.0695 50.2871C25.1988 50.2871 26.3487 50.4081 27.5191 50.65C28.6894 50.8919 29.6648 51.2446 30.445 51.7083L28.8434 55.0646C28.0426 54.601 27.2316 54.2885 26.4103 54.1273C25.6095 53.9458 24.8292 53.8551 24.0695 53.8551C23.0018 53.8551 22.2215 53.9962 21.7287 54.2785C21.2359 54.5607 20.9895 54.9235 20.9895 55.367C20.9895 55.7702 21.1641 56.0725 21.5131 56.2741C21.8827 56.4757 22.3653 56.637 22.9607 56.7579C23.5562 56.8789 24.203 56.9897 24.9011 57.0905C25.6197 57.1712 26.3384 57.3022 27.0571 57.4836C27.7757 57.6651 28.4225 57.9271 28.9974 58.2698C29.5929 58.5923 30.0754 59.0459 30.445 59.6305C30.8146 60.1949 30.9994 60.9408 30.9994 61.8681C30.9994 62.876 30.6914 63.773 30.0754 64.5592C29.4594 65.3252 28.5662 65.93 27.3959 66.3734C26.246 66.8169 24.8395 67.0387 23.1763 67.0387Z" fill="#222022"/>
<path d="M67.471 37.0391C65.5203 37.0391 64.0009 36.5553 62.9126 35.5877C61.8244 34.5999 61.2802 33.1384 61.2802 31.2032V16.9312H66.085V31.1428C66.085 31.8282 66.2698 32.3623 66.6394 32.7454C67.009 33.1082 67.512 33.2896 68.1486 33.2896C68.9083 33.2896 69.5551 33.088 70.0889 32.6849L71.3825 36.011C70.8897 36.3537 70.2943 36.6158 69.5961 36.7972C68.9185 36.9584 68.2102 37.0391 67.471 37.0391ZM58.7239 24.5208V20.8923H70.2121V24.5208H58.7239Z" fill="#2B91FF"/>
<path d="M49.4884 37.0387C47.5994 37.0387 45.9362 36.6758 44.4989 35.9501C43.0821 35.2244 41.9836 34.2367 41.2033 32.9868C40.4231 31.7169 40.033 30.2756 40.033 28.6629C40.033 27.0301 40.4128 25.5887 41.1725 24.3389C41.9528 23.069 43.0103 22.0812 44.3449 21.3757C45.6796 20.65 47.1887 20.2871 48.8724 20.2871C50.4946 20.2871 51.9524 20.6298 53.246 21.3152C54.5601 21.9804 55.597 22.948 56.3568 24.218C57.1165 25.4678 57.4963 26.9696 57.4963 28.7234C57.4963 28.9048 57.4861 29.1165 57.4655 29.3584C57.445 29.5801 57.4245 29.7918 57.4039 29.9933H43.9445V27.2417H54.8784L53.0304 28.0581C53.0304 27.2115 52.8559 26.4757 52.5068 25.8508C52.1577 25.2259 51.6752 24.7421 51.0592 24.3994C50.4432 24.0366 49.7246 23.8551 48.9032 23.8551C48.0819 23.8551 47.353 24.0366 46.7165 24.3994C46.1005 24.7421 45.618 25.236 45.2689 25.881C44.9198 26.506 44.7453 27.2518 44.7453 28.1186V28.8443C44.7453 29.7313 44.9404 30.5175 45.3305 31.2028C45.7412 31.8681 46.3058 32.3821 47.0245 32.7449C47.7637 33.0876 48.626 33.259 49.6116 33.259C50.4946 33.259 51.2645 33.128 51.9216 32.8659C52.5992 32.6038 53.2152 32.2108 53.7696 31.6866L56.326 34.408C55.5662 35.2547 54.6114 35.9098 53.4616 36.3734C52.3117 36.8169 50.9874 37.0387 49.4884 37.0387Z" fill="#2B91FF"/>
<path d="M29.7943 37.0387C28.398 37.0387 27.1763 36.7363 26.1291 36.1315C25.0819 35.5268 24.2606 34.6096 23.6652 33.3799C23.0902 32.1301 22.8028 30.5578 22.8028 28.6629C22.8028 26.7479 23.08 25.1755 23.6344 23.9458C24.1887 22.7162 24.9895 21.799 26.0367 21.1942C27.0839 20.5895 28.3364 20.2871 29.7943 20.2871C31.3548 20.2871 32.751 20.6399 33.983 21.3454C35.2355 22.0308 36.2211 22.9984 36.9398 24.2482C37.679 25.498 38.0486 26.9696 38.0486 28.6629C38.0486 30.3763 37.679 31.858 36.9398 33.1078C36.2211 34.3576 35.2355 35.3252 33.983 36.0106C32.751 36.696 31.3548 37.0387 29.7943 37.0387ZM20 42.6628V20.529H24.5891V23.8551L24.4967 28.6931L24.8047 33.5009V42.6628H20ZM28.9627 33.1683C29.7635 33.1683 30.4719 32.9868 31.0879 32.624C31.7244 32.2612 32.2274 31.7471 32.597 31.0819C32.9872 30.3965 33.1822 29.5902 33.1822 28.6629C33.1822 27.7154 32.9872 26.9091 32.597 26.2439C32.2274 25.5787 31.7244 25.0646 31.0879 24.7018C30.4719 24.3389 29.7635 24.1575 28.9627 24.1575C28.1619 24.1575 27.4432 24.3389 26.8067 24.7018C26.1702 25.0646 25.6671 25.5787 25.2975 26.2439C24.9279 26.9091 24.7431 27.7154 24.7431 28.6629C24.7431 29.5902 24.9279 30.3965 25.2975 31.0819C25.6671 31.7471 26.1702 32.2612 26.8067 32.624C27.4432 32.9868 28.1619 33.1683 28.9627 33.1683Z" fill="#2B91FF"/>
<defs>
<clipPath id="clip0_4086_2714">
<rect width="100" height="89" fill="white"/>
</clipPath>
</defs>
</svg>