<svg width="160" height="30" viewBox="0 0 160 30" fill="none" xmlns="http://www.w3.org/2000/svg">
<path d="M155.195 23.797V1.36084H160V23.797H155.195Z" fill="#222022"/>
<path d="M146.35 23.7968V20.6218L146.042 19.9264V14.2417C146.042 13.2338 145.724 12.4476 145.087 11.8832C144.471 11.3188 143.516 11.0366 142.223 11.0366C141.34 11.0366 140.467 11.1777 139.605 11.4599C138.763 11.7219 138.044 12.0848 137.449 12.5484L135.724 9.25254C136.628 8.62764 137.716 8.14384 138.989 7.80115C140.262 7.45845 141.556 7.28711 142.87 7.28711C145.395 7.28711 147.356 7.8717 148.752 9.04088C150.149 10.2101 150.847 12.0344 150.847 14.5139V23.7968H146.35ZM141.299 24.0387C140.005 24.0387 138.897 23.827 137.973 23.4037C137.049 22.9602 136.34 22.3655 135.847 21.6197C135.355 20.8738 135.108 20.0372 135.108 19.11C135.108 18.1424 135.344 17.2957 135.817 16.57C136.309 15.8443 137.079 15.2799 138.127 14.8767C139.174 14.4534 140.539 14.2417 142.223 14.2417H146.627V16.9933H142.746C141.617 16.9933 140.837 17.1748 140.406 17.5376C139.995 17.9005 139.79 18.354 139.79 18.8983C139.79 19.503 140.026 19.9868 140.498 20.3497C140.991 20.6924 141.658 20.8637 142.5 20.8637C143.301 20.8637 144.02 20.6823 144.656 20.3195C145.293 19.9365 145.755 19.3821 146.042 18.6564L146.781 20.8335C146.432 21.8817 145.796 22.678 144.872 23.2223C143.948 23.7665 142.757 24.0387 141.299 24.0387Z" fill="#222022"/>
<path d="M122.816 23.7971L115.856 7.5293H120.814L126.605 21.5292H124.141L130.147 7.5293H134.767L127.775 23.7971H122.816Z" fill="#222022"/>
<path d="M109.056 23.7969V7.52913H113.861V23.7969H109.056ZM111.458 5.26132C110.575 5.26132 109.857 5.00934 109.302 4.50539C108.748 4.00143 108.471 3.37652 108.471 2.63066C108.471 1.8848 108.748 1.2599 109.302 0.755938C109.857 0.251979 110.575 0 111.458 0C112.341 0 113.06 0.2419 113.614 0.725701C114.169 1.18934 114.446 1.79409 114.446 2.53995C114.446 3.32612 114.169 3.98127 113.614 4.50539C113.08 5.00934 112.362 5.26132 111.458 5.26132Z" fill="#222022"/>
<path d="M102.448 24.0391C100.497 24.0391 98.9776 23.5553 97.8893 22.5877C96.8011 21.5999 96.2569 20.1384 96.2569 18.2032V3.93115H101.062V18.1428C101.062 18.8281 101.246 19.3623 101.616 19.7454C101.986 20.1082 102.489 20.2896 103.125 20.2896C103.885 20.2896 104.532 20.088 105.066 19.6849L106.359 23.011C105.866 23.3537 105.271 23.6157 104.573 23.7972C103.895 23.9584 103.187 24.0391 102.448 24.0391ZM93.7006 11.5208V7.89226H105.189V11.5208H93.7006Z" fill="#222022"/>
<path d="M84.8841 24.0387C83.4673 24.0387 82.1018 23.8774 80.7877 23.5549C79.4941 23.2122 78.4675 22.7889 77.7078 22.2849L79.3093 18.8983C80.0691 19.3619 80.9623 19.7449 81.9889 20.0473C83.0361 20.3295 84.0627 20.4706 85.0689 20.4706C86.1777 20.4706 86.9579 20.3396 87.4096 20.0776C87.8819 19.8155 88.118 19.4527 88.118 18.989C88.118 18.606 87.9332 18.3238 87.5636 18.1424C87.2146 17.9408 86.7423 17.7896 86.1469 17.6888C85.5514 17.588 84.8943 17.4872 84.1757 17.3864C83.4776 17.2856 82.7692 17.1546 82.0505 16.9933C81.3319 16.8119 80.6748 16.5499 80.0793 16.2072C79.4839 15.8645 79.0013 15.4008 78.6318 14.8162C78.2827 14.2316 78.1082 13.4757 78.1082 12.5484C78.1082 11.5204 78.4059 10.6132 79.0013 9.82706C79.6173 9.04088 80.5003 8.42605 81.6501 7.98257C82.8 7.51893 84.1757 7.28711 85.7773 7.28711C86.9066 7.28711 88.0564 7.40806 89.2268 7.64996C90.3972 7.89186 91.3725 8.24463 92.1528 8.70827L90.5512 12.0646C89.7504 11.601 88.9394 11.2885 88.118 11.1273C87.3172 10.9458 86.537 10.8551 85.7773 10.8551C84.7095 10.8551 83.9293 10.9962 83.4365 11.2785C82.9437 11.5607 82.6973 11.9235 82.6973 12.367C82.6973 12.7702 82.8718 13.0725 83.2209 13.2741C83.5905 13.4757 84.073 13.637 84.6685 13.7579C85.2639 13.8789 85.9107 13.9897 86.6089 14.0905C87.3275 14.1712 88.0462 14.3022 88.7648 14.4836C89.4835 14.6651 90.1303 14.9271 90.7052 15.2698C91.3007 15.5923 91.7832 16.0459 92.1528 16.6305C92.5224 17.1949 92.7072 17.9408 92.7072 18.8681C92.7072 19.876 92.3992 20.773 91.7832 21.5592C91.1672 22.3252 90.274 22.93 89.1036 23.3734C87.9538 23.8169 86.5473 24.0387 84.8841 24.0387Z" fill="#222022"/>
<path d="M47.471 24.0391C45.5203 24.0391 44.0009 23.5553 42.9126 22.5877C41.8244 21.5999 41.2802 20.1384 41.2802 18.2032V3.93115H46.085V18.1428C46.085 18.8281 46.2698 19.3623 46.6394 19.7454C47.009 20.1082 47.512 20.2896 48.1486 20.2896C48.9083 20.2896 49.5551 20.088 50.0889 19.6849L51.3825 23.011C50.8897 23.3537 50.2943 23.6157 49.5961 23.7972C48.9185 23.9584 48.2102 24.0391 47.471 24.0391ZM38.7239 11.5208V7.89226H50.2121V11.5208H38.7239Z" fill="#2B91FF"/>
<path d="M29.4884 24.0387C27.5994 24.0387 25.9362 23.6758 24.4989 22.9501C23.0821 22.2244 21.9836 21.2367 21.2033 19.9868C20.4231 18.7169 20.033 17.2756 20.033 15.6629C20.033 14.0301 20.4128 12.5887 21.1725 11.3389C21.9528 10.069 23.0103 9.0812 24.3449 8.37566C25.6796 7.64996 27.1887 7.28711 28.8724 7.28711C30.4946 7.28711 31.9524 7.6298 33.246 8.31518C34.5601 8.98041 35.597 9.94801 36.3568 11.218C37.1165 12.4678 37.4963 13.9696 37.4963 15.7234C37.4963 15.9048 37.4861 16.1165 37.4655 16.3584C37.445 16.5801 37.4245 16.7918 37.4039 16.9933H23.9445V14.2417H34.8784L33.0304 15.0581C33.0304 14.2115 32.8559 13.4757 32.5068 12.8508C32.1577 12.2259 31.6752 11.7421 31.0592 11.3994C30.4432 11.0366 29.7246 10.8551 28.9032 10.8551C28.0819 10.8551 27.353 11.0366 26.7165 11.3994C26.1005 11.7421 25.618 12.236 25.2689 12.881C24.9198 13.5059 24.7453 14.2518 24.7453 15.1186V15.8443C24.7453 16.7313 24.9404 17.5175 25.3305 18.2028C25.7412 18.8681 26.3058 19.3821 27.0245 19.7449C27.7637 20.0876 28.626 20.259 29.6116 20.259C30.4946 20.259 31.2645 20.128 31.9216 19.8659C32.5992 19.6038 33.2152 19.2108 33.7696 18.6866L36.326 21.408C35.5662 22.2547 34.6114 22.9098 33.4616 23.3734C32.3117 23.8169 30.9874 24.0387 29.4884 24.0387Z" fill="#2B91FF"/>
<path d="M9.79428 24.0387C8.39803 24.0387 7.17631 23.7363 6.12912 23.1315C5.08194 22.5268 4.26061 21.6096 3.66515 20.3799C3.09023 19.1301 2.80276 17.5578 2.80276 15.6629C2.80276 13.7479 3.07996 12.1755 3.63435 10.9458C4.18875 9.71619 4.98954 8.79898 6.03672 8.19423C7.08391 7.58948 8.33643 7.28711 9.79428 7.28711C11.3548 7.28711 12.751 7.63988 13.983 8.34542C15.2355 9.0308 16.2211 9.9984 16.9398 11.2482C17.679 12.498 18.0486 13.9696 18.0486 15.6629C18.0486 17.3763 17.679 18.858 16.9398 20.1078C16.2211 21.3576 15.2355 22.3252 13.983 23.0106C12.751 23.696 11.3548 24.0387 9.79428 24.0387ZM0 29.6628V7.52901H4.58914V10.8551L4.49674 15.6931L4.80474 20.5009V29.6628H0ZM8.96269 20.1683C9.76348 20.1683 10.4719 19.9868 11.0879 19.624C11.7244 19.2612 12.2274 18.7471 12.597 18.0819C12.9872 17.3965 13.1822 16.5902 13.1822 15.6629C13.1822 14.7154 12.9872 13.9091 12.597 13.2439C12.2274 12.5787 11.7244 12.0646 11.0879 11.7018C10.4719 11.3389 9.76348 11.1575 8.96269 11.1575C8.1619 11.1575 7.44324 11.3389 6.80671 11.7018C6.17019 12.0646 5.66713 12.5787 5.29753 13.2439C4.92794 13.9091 4.74314 14.7154 4.74314 15.6629C4.74314 16.5902 4.92794 17.3965 5.29753 18.0819C5.66713 18.7471 6.17019 19.2612 6.80671 19.624C7.44324 19.9868 8.1619 20.1683 8.96269 20.1683Z" fill="#2B91FF"/>
<g clip-path="url(#clip0_2079_537)">
<path d="M59.7853 11.7013C59.2648 11.6951 58.7631 11.5363 58.3668 11.2523C57.5393 10.6137 57.0379 9.73015 56.9681 8.78715C56.7498 6.90184 57.9715 5.79062 59.2912 5.66664C59.6091 5.6368 59.931 5.66119 60.2375 5.73833C60.5441 5.81548 60.829 5.94382 61.0752 6.11567C61.4429 6.39443 61.7414 6.73164 61.9535 7.10787C62.1657 7.48411 62.2873 7.89194 62.3113 8.30789C62.5126 10.0639 61.4004 11.7013 59.7853 11.7013ZM55.0143 16.2369C54.5363 16.2277 54.0799 16.0674 53.736 15.7879C52.9755 15.1216 52.5286 14.2456 52.4783 13.3228C52.2807 11.4375 53.382 10.3262 54.5723 10.2023C54.8624 10.1744 55.1563 10.2001 55.4334 10.2777C55.7105 10.3552 55.9642 10.4827 56.1767 10.6513C56.8601 11.2395 57.2577 12.0214 57.2915 12.8435C57.4721 14.5995 56.3671 16.2369 55.0143 16.2369ZM66.6772 11.7013C65.0512 11.7013 63.9517 10.0639 64.1556 8.30562C64.1797 7.88967 64.3013 7.48184 64.5134 7.10561C64.7255 6.72937 65.024 6.39216 65.3917 6.1134C65.6377 5.94254 65.922 5.81496 66.2276 5.73822C66.5333 5.66148 66.8542 5.63714 67.1712 5.66664C68.4909 5.79062 69.7126 6.90184 69.4943 8.78715C69.4244 9.73036 68.9232 10.6141 68.0956 11.253C67.699 11.5365 67.1975 11.695 66.6772 11.7013ZM71.3637 16.2369C69.6695 16.2369 68.8242 14.5996 69.0146 12.8412C69.0524 12.0138 69.464 11.2298 70.1653 10.649C70.3879 10.4792 70.6509 10.3513 70.9369 10.2739C71.2229 10.1964 71.5252 10.1712 71.8237 10.2C73.0526 10.324 74.1907 11.4352 73.9877 13.3205C73.9306 14.2498 73.4662 15.1284 72.6842 15.7864C72.3246 16.0677 71.8546 16.228 71.3637 16.2369ZM66.8245 23.7963C66.0567 23.809 65.2986 23.6512 64.6263 23.3389C64.1962 23.1483 63.7174 23.0486 63.2312 23.0486C62.7451 23.0486 62.2662 23.1483 61.8361 23.3389C59.1295 24.6142 55.9746 23.2119 56.0446 20.0166C56.0446 16.5121 60.0934 13.2132 63.2312 13.2132C66.369 13.2132 70.4178 16.5121 70.4178 20.0166C70.4178 22.2421 68.94 23.7963 66.8245 23.7963Z" fill="#C8E2FF"/>
</g>
<defs>
<clipPath id="clip0_2079_537">
<rect width="21.5597" height="18.1425" fill="white" transform="translate(52.4515 5.6543)"/>
</clipPath>
</defs>
</svg>
