<svg width="250" height="89" viewBox="0 0 250 89" fill="none" xmlns="http://www.w3.org/2000/svg">
<path d="M14.3018 66.6211V82.6172H12.1396V74.6191H10.6455V81.8438H8.53613V66.8848H10.6455V72.8086H12.1396V66.6211H14.3018ZM1.15332 78.7148V68.3965H3.40332V76.7549C4.68652 76.7197 6.10156 76.6055 7.63965 76.3066L7.86816 78.2402C5.72363 78.6094 3.89551 78.7236 2.24316 78.7148H1.15332ZM32.8994 66.6211V70.3828H35.0615V72.2109H32.8994V75.9023H30.6494V66.6211H32.8994ZM20.1025 74.4434C23.627 73.5117 25.6396 71.6836 25.9912 69.4688H20.8584V67.6758H28.4346C28.4434 71.9385 25.7627 74.9268 20.999 76.2539L20.1025 74.4434ZM22.2646 79.3652C22.2471 77.3613 24.4268 76.0957 27.6787 76.0957C30.9395 76.0957 33.0664 77.3613 33.0752 79.3652C33.0664 81.3867 30.9395 82.6348 27.6787 82.6348C24.4268 82.6348 22.2471 81.3867 22.2646 79.3652ZM24.4795 79.3652C24.4707 80.332 25.666 80.8857 27.6787 80.877C29.665 80.8857 30.8604 80.332 30.8604 79.3652C30.8604 78.3809 29.665 77.8359 27.6787 77.8359C25.666 77.8359 24.4707 78.3809 24.4795 79.3652ZM40.0713 67.7461C42.5146 67.7461 44.2812 69.9521 44.29 73.4414C44.2812 76.957 42.5146 79.1543 40.0713 79.1543C37.6191 79.1543 35.8438 76.957 35.8525 73.4414C35.8438 69.9521 37.6191 67.7461 40.0713 67.7461ZM38.0146 73.4414C38.0146 75.8232 38.8496 77.124 40.0713 77.1152C41.3193 77.124 42.1367 75.8232 42.1455 73.4414C42.1367 71.0684 41.3193 69.7676 40.0713 69.7676C38.8496 69.7676 38.0146 71.0684 38.0146 73.4414ZM46.1357 82.6172V66.6211H48.3857V72.6504H50.7412V74.5137H48.3857V82.6172H46.1357ZM57.5264 70.9805C57.5176 73.5645 58.8535 76.333 61.5342 77.4492L60.3213 79.207C58.4404 78.4072 57.1396 76.8164 56.4189 74.8828C55.6982 76.9834 54.3711 78.7412 52.4814 79.6113L51.1982 77.8359C53.8525 76.6494 55.2236 73.6875 55.2236 70.9805V69.9961H51.8311V68.168H60.8662V69.9961H57.5264V70.9805ZM62.4482 82.6172V66.6211H64.7158V82.6172H62.4482ZM71.6416 67.5703C74.1113 67.5791 76.0186 69.1963 76.0361 71.4902C76.0186 73.4238 74.6738 74.874 72.7842 75.2871V77.4756C74.041 77.4141 75.3066 77.3086 76.4932 77.1504L76.6514 78.8027C73.3027 79.4443 69.6992 79.4355 66.9834 79.4004L66.6846 77.5898C67.8447 77.5898 69.1631 77.5898 70.5518 77.5547V75.3047C68.6006 74.9092 67.2471 73.4502 67.2471 71.4902C67.2471 69.1963 69.1191 67.5791 71.6416 67.5703ZM69.4443 71.4902C69.4355 72.7471 70.376 73.5117 71.6416 73.5117C72.8809 73.5117 73.8213 72.7471 73.8213 71.4902C73.8213 70.2158 72.8809 69.4775 71.6416 69.4688C70.376 69.4775 69.4355 70.2158 69.4443 71.4902ZM77.3369 82.6172V66.6211H79.5869V72.8965H81.7666V74.7773H79.5869V82.6172H77.3369ZM99.2744 66.6211V70.5586H101.437V72.4395H99.2744V76.2715H97.0244V66.6211H99.2744ZM86.583 69.8379V68.0625H90.2217V66.5332H92.4541V68.0625H96.0752V69.8379H86.583ZM87.3564 73.1953C87.3564 71.5078 88.9736 70.3301 91.3291 70.3301C93.6582 70.3301 95.2666 71.5078 95.2666 73.1953C95.2666 74.9268 93.6582 76.0869 91.3291 76.0957C88.9736 76.0869 87.3564 74.9268 87.3564 73.1953ZM88.8154 82.4414V76.9746H99.2744V82.4414H88.8154ZM89.5537 73.1953C89.5449 74.0127 90.2568 74.4346 91.3291 74.4434C92.4102 74.4346 93.1396 74.0127 93.1396 73.1953C93.1396 72.4307 92.4102 72.0088 91.3291 72.0176C90.2568 72.0088 89.5449 72.4307 89.5537 73.1953ZM91.0303 80.6484H97.0596V78.7324H91.0303V80.6484ZM106.077 68.4492C106.06 72.4482 105.673 76.0254 103.634 79.1895L101.894 78.2754C103.537 75.7881 104.029 73.3535 104.135 70.2598H102.421V68.4492H106.077ZM105.515 79.0488C107.308 76.3242 107.668 73.5029 107.747 70.2598H106.534V68.4492H109.663C109.663 69.8555 109.628 71.2529 109.505 72.6152H110.876V66.9727H112.985V81.9141H110.876V74.4258H109.276C108.942 76.3857 108.336 78.2666 107.22 79.998L105.515 79.0488ZM113.987 82.6172V66.6211H116.132V82.6172H113.987ZM130.317 66.6211V72.8789H132.673V74.7246H130.317V82.6172H128.103V66.6211H130.317ZM117.608 70.8047V69.0117H121.229V66.8672H123.479V69.0117H127.013V70.8047H117.608ZM118.259 75.5156C118.25 73.2832 119.99 71.6924 122.354 71.7012C124.684 71.6924 126.433 73.2832 126.433 75.5156C126.433 77.748 124.684 79.3213 122.354 79.3301C119.99 79.3213 118.25 77.748 118.259 75.5156ZM120.403 75.5156C120.403 76.7549 121.221 77.4932 122.354 77.4844C123.471 77.4932 124.288 76.7549 124.288 75.5156C124.288 74.2852 123.471 73.5293 122.354 73.5117C121.221 73.5293 120.403 74.2852 120.403 75.5156ZM146.243 70.9805V72.7383H135.063V67.1836H137.296V70.9805H146.243ZM133.235 76.2188V74.4609H147.878V76.2188H133.235ZM134.923 82.2656V77.5195H137.173V80.4727H146.349V82.2656H134.923ZM166.95 66.6211V82.6172H164.788V66.6211H166.95ZM152.782 77.1152H154.118V70.2422H153.081V68.4316H160.411V70.2422H159.392V76.8955C159.84 76.8516 160.271 76.8076 160.675 76.7461L160.833 78.3633C158.302 78.8994 155.032 78.9609 153.028 78.9609L152.782 77.1152ZM156.104 77.0801C156.518 77.0713 156.931 77.0537 157.353 77.0361V70.2422H156.104V77.0801ZM160.042 74.4434V72.4395H161.589V66.9375H163.716V81.8613H161.589V74.4434H160.042ZM176.935 68.7305C176.926 71.0771 179.009 73.582 182.63 74.1973L181.646 76.0605C178.851 75.5068 176.785 73.9336 175.748 71.8857C174.693 73.916 172.619 75.498 169.851 76.0605L168.884 74.1973C172.443 73.5645 174.526 71.0508 174.544 68.7305V67.5703H176.935V68.7305ZM168.515 80.6484V78.8027H183.157V80.6484H168.515ZM193.089 67.9395V69.7676H187.165V72.4043H192.421V74.1621H187.165V77.1855C189.617 77.168 191.568 77.0713 193.81 76.7285L194.021 78.5391C191.507 78.9082 189.213 78.9785 186.321 78.9785H184.95V67.9395H193.089ZM195.251 82.6172V66.6211H197.519V82.6172H195.251ZM213.11 66.6211V74.7949H210.878V71.666H207.925V74.3555H200.313V67.3066H202.563V69.1348H205.71V67.3066H207.925V69.8555H210.878V66.6211H213.11ZM202.458 77.1504V75.3926H213.11V79.6992H204.726V80.6836H213.585V82.4414H202.476V78.082H210.878V77.1504H202.458ZM202.563 72.5977H205.71V70.875H202.563V72.5977ZM232.815 66.6211V76.1133H230.583V72.334H228.087V70.5234H230.583V66.6211H232.815ZM219.228 74.3555C221.847 73.4766 223.042 71.3848 223.095 69.3809H219.878V67.5879H228.562V69.3809H225.38C225.424 71.2441 226.566 73.125 229.054 73.9512L227.946 75.709C226.188 75.1377 224.967 73.9775 224.272 72.5449C223.569 74.1709 222.286 75.4805 220.388 76.1309L219.228 74.3555ZM221.847 79.5586C221.847 77.6162 223.938 76.4736 227.349 76.4648C230.768 76.4736 232.859 77.6162 232.868 79.5586C232.859 81.501 230.768 82.6348 227.349 82.6348C223.938 82.6348 221.847 81.501 221.847 79.5586ZM224.079 79.5586C224.079 80.4727 225.23 80.9297 227.349 80.9297C229.476 80.9297 230.627 80.4727 230.636 79.5586C230.627 78.6357 229.476 78.1787 227.349 78.1875C225.23 78.1787 224.079 78.6357 224.079 79.5586ZM249.532 78.9258V80.7539H234.89V78.9258H241.06V75.9727H236.437V67.6406H238.687V70.1191H245.665V67.6406H247.897V75.9727H243.292V78.9258H249.532ZM238.687 74.1797H245.665V71.9121H238.687V74.1797Z" fill="#222022"/>
<path d="M240.852 36.7181V2.13489H248.123V36.7181H240.852Z" fill="#222022"/>
<path d="M227.467 36.718V31.8242L227 30.7522V21.9899C227 20.4363 226.519 19.2245 225.556 18.3545C224.623 17.4844 223.179 17.0494 221.221 17.0494C219.885 17.0494 218.564 17.2669 217.259 17.7019C215.985 18.1059 214.898 18.6652 213.997 19.3798L211.387 14.2995C212.754 13.3363 214.401 12.5906 216.327 12.0624C218.254 11.5341 220.211 11.27 222.2 11.27C226.022 11.27 228.989 12.1711 231.102 13.9733C233.215 15.7755 234.271 18.5875 234.271 22.4094V36.718H227.467ZM219.823 37.0909C217.865 37.0909 216.187 36.7647 214.789 36.1121C213.391 35.4286 212.319 34.5119 211.573 33.3623C210.827 32.2126 210.455 30.9231 210.455 29.4938C210.455 28.0023 210.812 26.6973 211.527 25.5787C212.272 24.4601 213.438 23.5901 215.022 22.9687C216.607 22.3161 218.673 21.9899 221.221 21.9899H227.886V26.2312H222.013C220.304 26.2312 219.124 26.5109 218.471 27.0702C217.85 27.6295 217.539 28.3286 217.539 29.1675C217.539 30.0997 217.896 30.8454 218.611 31.4047C219.357 31.9329 220.367 32.1971 221.641 32.1971C222.852 32.1971 223.94 31.9174 224.903 31.3581C225.866 30.7677 226.565 29.9133 227 28.7947L228.119 32.1504C227.591 33.7662 226.628 34.9935 225.229 35.8325C223.831 36.6714 222.029 37.0909 219.823 37.0909Z" fill="#222022"/>
<path d="M191.855 36.718L181.321 11.6428H188.825L197.587 33.2224H193.859L202.947 11.6428H209.939L199.359 36.718H191.855Z" fill="#222022"/>
<path d="M171.031 36.7181V11.6429H178.302V36.7181H171.031ZM174.666 8.14729C173.33 8.14729 172.243 7.75889 171.404 6.98208C170.565 6.20528 170.145 5.24205 170.145 4.09238C170.145 2.94271 170.565 1.97948 171.404 1.20268C172.243 0.425876 173.33 0.0374756 174.666 0.0374756C176.002 0.0374756 177.09 0.410341 177.929 1.15607C178.768 1.87073 179.187 2.80289 179.187 3.95256C179.187 5.16437 178.768 6.17421 177.929 6.98208C177.121 7.75889 176.033 8.14729 174.666 8.14729Z" fill="#222022"/>
<path d="M161.03 37.0908C158.078 37.0908 155.779 36.3451 154.132 34.8536C152.485 33.3311 151.662 31.0784 151.662 28.0955V6.09644H158.933V28.0022C158.933 29.0587 159.212 29.8821 159.772 30.4725C160.331 31.0318 161.092 31.3114 162.056 31.3114C163.205 31.3114 164.184 31.0007 164.992 30.3793L166.949 35.5061C166.204 36.0344 165.303 36.4383 164.246 36.718C163.221 36.9665 162.149 37.0908 161.03 37.0908ZM147.793 17.7951V12.2021H165.178V17.7951H147.793Z" fill="#222022"/>
<path d="M134.452 37.0909C132.308 37.0909 130.242 36.8423 128.253 36.3452C126.296 35.817 124.742 35.1644 123.592 34.3876L126.016 29.1675C127.166 29.8822 128.517 30.4726 130.071 30.9386C131.655 31.3736 133.209 31.5912 134.732 31.5912C136.41 31.5912 137.59 31.3892 138.274 30.9852C138.988 30.5813 139.346 30.022 139.346 29.3074C139.346 28.717 139.066 28.282 138.507 28.0023C137.979 27.6916 137.264 27.4586 136.363 27.3032C135.462 27.1478 134.468 26.9925 133.38 26.8371C132.324 26.6818 131.252 26.4798 130.164 26.2312C129.077 25.9516 128.082 25.5476 127.181 25.0194C126.28 24.4912 125.55 23.7765 124.991 22.8754C124.462 21.9743 124.198 20.8091 124.198 19.3798C124.198 17.7952 124.649 16.3969 125.55 15.1851C126.482 13.9733 127.818 13.0256 129.558 12.342C131.298 11.6273 133.38 11.27 135.804 11.27C137.513 11.27 139.253 11.4565 141.024 11.8293C142.795 12.2022 144.271 12.7459 145.451 13.4606L143.028 18.6341C141.816 17.9194 140.589 17.4378 139.346 17.1892C138.134 16.9096 136.953 16.7698 135.804 16.7698C134.188 16.7698 133.007 16.9873 132.261 17.4223C131.516 17.8573 131.143 18.4166 131.143 19.1002C131.143 19.7216 131.407 20.1877 131.935 20.4984C132.494 20.8091 133.225 21.0577 134.126 21.2442C135.027 21.4306 136.006 21.6015 137.062 21.7568C138.15 21.8811 139.237 22.0831 140.325 22.3627C141.412 22.6424 142.391 23.0463 143.261 23.5746C144.162 24.0717 144.892 24.7708 145.451 25.6719C146.011 26.5419 146.29 27.6916 146.29 29.1209C146.29 30.6745 145.824 32.0572 144.892 33.269C143.96 34.4498 142.608 35.3819 140.837 36.0655C139.097 36.7491 136.969 37.0909 134.452 37.0909Z" fill="#222022"/>
<path d="M77.8366 37.0908C74.8847 37.0908 72.5854 36.3451 70.9386 34.8536C69.2917 33.3311 68.4683 31.0784 68.4683 28.0955V6.09644H75.7392V28.0022C75.7392 29.0587 76.0188 29.8821 76.5781 30.4725C77.1374 31.0318 77.8987 31.3114 78.8619 31.3114C80.0116 31.3114 80.9904 31.0007 81.7982 30.3793L83.7558 35.5061C83.0101 36.0344 82.109 36.4383 81.0525 36.718C80.0271 36.9665 78.9551 37.0908 77.8366 37.0908ZM64.5999 17.7951V12.2021H81.9847V17.7951H64.5999Z" fill="#2B91FF"/>
<path d="M50.624 37.0908C47.7654 37.0908 45.2485 36.5315 43.0735 35.4129C40.9295 34.2943 39.2672 32.7718 38.0864 30.8453C36.9057 28.8878 36.3153 26.6661 36.3153 24.1803C36.3153 21.6635 36.8901 19.4418 38.0398 17.5154C39.2205 15.5578 40.8208 14.0353 42.8404 12.9478C44.8601 11.8292 47.1439 11.2699 49.6918 11.2699C52.1465 11.2699 54.3526 11.7981 56.3102 12.8546C58.2988 13.8799 59.8679 15.3714 61.0176 17.329C62.1673 19.2554 62.7421 21.5703 62.7421 24.2736C62.7421 24.5532 62.7266 24.8795 62.6955 25.2523C62.6644 25.5941 62.6333 25.9204 62.6023 26.2311H42.2345V21.9898H58.7804L55.9839 23.2482C55.9839 21.9432 55.7198 20.809 55.1916 19.8458C54.6634 18.8826 53.9332 18.1368 53.001 17.6086C52.0688 17.0493 50.9813 16.7697 49.7384 16.7697C48.4956 16.7697 47.3925 17.0493 46.4293 17.6086C45.4971 18.1368 44.7669 18.8981 44.2387 19.8924C43.7105 20.8556 43.4463 22.0053 43.4463 23.3414V24.46C43.4463 25.8272 43.7415 27.039 44.3319 28.0954C44.9533 29.1208 45.8078 29.9131 46.8953 30.4724C48.0139 31.0007 49.319 31.2648 50.8104 31.2648C52.1465 31.2648 53.3117 31.0628 54.306 30.6589C55.3314 30.2549 56.2636 29.649 57.1025 28.8411L60.971 33.0359C59.8213 34.3409 58.3765 35.3507 56.6364 36.0654C54.8964 36.749 52.8923 37.0908 50.624 37.0908Z" fill="#2B91FF"/>
<path d="M20.8214 37.0908C18.7085 37.0908 16.8597 36.6247 15.275 35.6925C13.6903 34.7604 12.4475 33.3466 11.5464 31.4512C10.6763 29.5247 10.2413 27.1011 10.2413 24.1803C10.2413 21.2285 10.6608 18.8049 11.4998 16.9095C12.3387 15.0141 13.5505 13.6003 15.1352 12.6681C16.7199 11.736 18.6153 11.2699 20.8214 11.2699C23.1829 11.2699 25.2958 11.8137 27.1601 12.9012C29.0555 13.9576 30.5469 15.4491 31.6345 17.3756C32.753 19.302 33.3123 21.5703 33.3123 24.1803C33.3123 26.8215 32.753 29.1053 31.6345 31.0317C30.5469 32.9582 29.0555 34.4497 27.1601 35.5061C25.2958 36.5626 23.1829 37.0908 20.8214 37.0908ZM6 45.7599V11.6428H12.9446V16.7697L12.8048 24.2269L13.2709 31.6376V45.7599H6ZM19.563 31.1249C20.7748 31.1249 21.8468 30.8453 22.7789 30.286C23.7422 29.7267 24.5034 28.9344 25.0627 27.909C25.6531 26.8525 25.9483 25.6097 25.9483 24.1803C25.9483 22.72 25.6531 21.4771 25.0627 20.4517C24.5034 19.4263 23.7422 18.634 22.7789 18.0747C21.8468 17.5154 20.7748 17.2357 19.563 17.2357C18.3511 17.2357 17.2636 17.5154 16.3004 18.0747C15.3372 18.634 14.5759 19.4263 14.0166 20.4517C13.4573 21.4771 13.1776 22.72 13.1776 24.1803C13.1776 25.6097 13.4573 26.8525 14.0166 27.909C14.5759 28.9344 15.3372 29.7267 16.3004 30.286C17.2636 30.8453 18.3511 31.1249 19.563 31.1249Z" fill="#2B91FF"/>
<g clip-path="url(#clip0_2092_669)">
<path d="M96.4715 18.0744C95.6838 18.0648 94.9247 17.82 94.325 17.3823C93.0727 16.398 92.3141 15.0361 92.2084 13.5825C91.8781 10.6765 93.7269 8.96366 95.7238 8.77257C96.205 8.72658 96.6921 8.76416 97.1559 8.88308C97.6198 9.00199 98.0509 9.1998 98.4236 9.4647C98.9799 9.89439 99.4316 10.4142 99.7527 10.9941C100.074 11.574 100.258 12.2026 100.294 12.8438C100.599 15.5506 98.9157 18.0744 96.4715 18.0744ZM89.2517 25.0656C88.5284 25.0514 87.8377 24.8043 87.3173 24.3735C86.1665 23.3465 85.4902 21.9962 85.4141 20.5737C85.1151 17.6677 86.7817 15.9549 88.5829 15.7638C89.022 15.7208 89.4667 15.7604 89.886 15.88C90.3054 15.9995 90.6892 16.1961 91.0108 16.4559C92.045 17.3626 92.6467 18.5677 92.6978 19.835C92.971 22.5418 91.299 25.0656 89.2517 25.0656ZM106.901 18.0744C104.44 18.0744 102.776 15.5506 103.085 12.8403C103.121 12.1992 103.305 11.5705 103.626 10.9906C103.947 10.4107 104.399 9.89089 104.956 9.46121C105.328 9.19784 105.758 9.00119 106.221 8.8829C106.683 8.76462 107.169 8.7271 107.648 8.77257C109.645 8.96366 111.494 10.6765 111.164 13.5825C111.058 15.0364 110.3 16.3986 109.047 17.3834C108.447 17.8204 107.688 18.0647 106.901 18.0744ZM113.993 25.0656C111.429 25.0656 110.15 22.5418 110.438 19.8315C110.495 18.5561 111.118 17.3476 112.179 16.4524C112.516 16.1907 112.914 15.9935 113.347 15.8741C113.78 15.7548 114.237 15.716 114.689 15.7603C116.549 15.9514 118.271 17.6642 117.964 20.5702C117.877 22.0027 117.175 23.3569 115.991 24.3711C115.447 24.8047 114.736 25.0519 113.993 25.0656ZM107.124 36.7176C105.962 36.7372 104.815 36.4941 103.797 36.0127C103.146 35.7188 102.422 35.5652 101.686 35.5652C100.95 35.5652 100.226 35.7188 99.575 36.0127C95.4791 37.9784 90.7049 35.8169 90.811 30.8916C90.811 25.4897 96.9378 20.4048 101.686 20.4048C106.435 20.4048 112.561 25.4897 112.561 30.8916C112.561 34.322 110.325 36.7176 107.124 36.7176Z" fill="#C8E2FF"/>
</g>
<defs>
<clipPath id="clip0_2092_669">
<rect width="32.6257" height="27.9649" fill="white" transform="translate(85.3737 8.75317)"/>
</clipPath>
</defs>
</svg>
